<svg xmlns="http://www.w3.org/2000/svg" xmlns:xlink="http://www.w3.org/1999/xlink" width="500" zoomAndPan="magnify" viewBox="0 0 375 374.999991" height="500" preserveAspectRatio="xMidYMid meet" version="1.0"><defs><g/><clipPath id="85d842fa51"><path d="M 207 229 L 211.628906 229 L 211.628906 234 L 207 234 Z M 207 229 " clip-rule="nonzero"/></clipPath><clipPath id="59672c6b67"><path d="M 138 258 L 142 258 L 142 262.5 L 138 262.5 Z M 138 258 " clip-rule="nonzero"/></clipPath><clipPath id="ade0d56e57"><path d="M 163.945312 112.53125 L 167.769531 112.53125 L 167.769531 116.34375 L 163.945312 116.34375 Z M 163.945312 112.53125 " clip-rule="nonzero"/></clipPath><clipPath id="ef2b7fcce6"><path d="M 84.128906 177 L 88 177 L 88 181 L 84.128906 181 Z M 84.128906 177 " clip-rule="nonzero"/></clipPath><clipPath id="5cf27bee6e"><path d="M 120.3125 163 L 123 163 L 123 190 L 120.3125 190 Z M 120.3125 163 " clip-rule="nonzero"/></clipPath><clipPath id="89b01bbf56"><path d="M 126 132.191406 L 270.3125 132.191406 L 270.3125 218.441406 L 126 218.441406 Z M 126 132.191406 " clip-rule="nonzero"/></clipPath></defs><rect x="-37.5" width="450" fill="#ffffff" y="-37.499999" height="449.999989" fill-opacity="1"/><rect x="-37.5" width="450" fill="#004576" y="-37.499999" height="449.999989" fill-opacity="1"/><path fill="#ffffff" d="M 140.46875 260.582031 L 117.839844 240.324219 L 160.078125 256.054688 Z M 116.300781 239.394531 L 140.371094 260.945312 L 140.457031 260.925781 L 161.238281 256.132812 L 160.71875 255.9375 L 116.300781 239.394531 " fill-opacity="1" fill-rule="nonzero"/><path fill="#ffffff" d="M 161.304688 256.015625 L 190.800781 244.390625 L 183.910156 259.246094 Z M 191.453125 243.777344 L 191.066406 243.929688 L 160.011719 256.167969 L 184.109375 259.613281 L 191.453125 243.777344 " fill-opacity="1" fill-rule="nonzero"/><path fill="#ffffff" d="M 149.046875 122.53125 L 165.765625 114.171875 L 182.910156 124.890625 Z M 165.785156 113.792969 L 147.804688 122.78125 L 184.222656 125.316406 L 165.785156 113.792969 " fill-opacity="1" fill-rule="nonzero"/><path fill="#ffffff" d="M 130.398438 129.644531 L 139.132812 116.441406 L 148.074219 122.617188 Z M 139.042969 115.972656 L 138.949219 116.117188 L 129.535156 130.347656 L 148.777344 122.695312 L 139.042969 115.972656 " fill-opacity="1" fill-rule="nonzero"/><path fill="#ffffff" d="M 108.820312 141.144531 L 116.929688 126.632812 L 129.519531 130.046875 Z M 116.765625 126.242188 L 107.972656 141.976562 L 130.417969 129.945312 L 116.765625 126.242188 " fill-opacity="1" fill-rule="nonzero"/><path fill="#ffffff" d="M 96.125 149.203125 L 108.066406 141.957031 L 99.113281 165.410156 Z M 108.726562 141.164062 L 95.757812 149.039062 L 99 166.640625 L 108.726562 141.164062 " fill-opacity="1" fill-rule="nonzero"/><path fill="#ffffff" d="M 86.359375 179.394531 L 98.828125 166.5 L 95.171875 195.949219 Z M 99.28125 165.550781 L 85.953125 179.339844 L 86.007812 179.445312 L 95.375 197.035156 L 99.28125 165.550781 " fill-opacity="1" fill-rule="nonzero"/><path fill="#ffffff" d="M 88.574219 212.25 L 95.195312 197.085938 L 99.46875 224.640625 Z M 95.351562 195.898438 L 88.183594 212.3125 L 88.253906 212.390625 L 99.972656 225.71875 L 95.351562 195.898438 " fill-opacity="1" fill-rule="nonzero"/><path fill="#ffffff" d="M 104.957031 239.25 L 100.089844 225.710938 L 116.59375 239.675781 Z M 99.355469 224.652344 L 104.71875 239.578125 L 117.546875 240.042969 L 99.355469 224.652344 " fill-opacity="1" fill-rule="nonzero"/><path fill="#ffffff" d="M 160.847656 255.839844 L 161.921875 242.703125 L 190.351562 244.210938 Z M 161.617188 242.351562 L 160.46875 256.347656 L 191.902344 243.957031 L 161.617188 242.351562 " fill-opacity="1" fill-rule="nonzero"/><path fill="#ffffff" d="M 117.457031 239.714844 L 131.550781 226.054688 L 161.042969 242.316406 Z M 131.496094 225.644531 L 131.410156 225.726562 L 116.679688 240.003906 L 117.058594 240.023438 L 162.5 242.738281 L 131.496094 225.644531 " fill-opacity="1" fill-rule="nonzero"/><path fill="#ffffff" d="M 99.867188 225.015625 L 95.503906 196.894531 L 131.042969 225.671875 Z M 95.042969 196.089844 L 99.578125 225.34375 L 132.007812 226.023438 L 95.042969 196.089844 " fill-opacity="1" fill-rule="nonzero"/><path fill="#ffffff" d="M 95.46875 196.28125 L 99.148438 166.636719 L 111.050781 193.035156 Z M 98.964844 165.414062 L 95.082031 196.703125 L 111.523438 193.277344 L 111.4375 193.085938 L 98.964844 165.414062 " fill-opacity="1" fill-rule="nonzero"/><path fill="#ffffff" d="M 131.515625 225.515625 L 111.808594 193.679688 L 139.308594 211.007812 Z M 110.765625 192.628906 L 131.535156 226.179688 L 139.753906 210.890625 L 139.621094 210.808594 L 110.765625 192.628906 " fill-opacity="1" fill-rule="nonzero"/><path fill="#ffffff" d="M 162.375 242.394531 L 188.988281 228.113281 L 190.9375 243.90625 Z M 189.261719 227.589844 L 189.046875 227.703125 L 161.167969 242.664062 L 191.316406 244.261719 L 191.292969 244.0625 L 189.261719 227.589844 " fill-opacity="1" fill-rule="nonzero"/><path fill="#ffffff" d="M 99.316406 165.8125 L 108.429688 141.945312 L 120.363281 162.339844 Z M 108.363281 141.175781 L 98.796875 166.234375 L 99.082031 166.1875 L 120.894531 162.589844 L 120.773438 162.378906 L 108.363281 141.175781 " fill-opacity="1" fill-rule="nonzero"/><path fill="#ffffff" d="M 109.8125 141.445312 C 109.8125 140.769531 109.265625 140.222656 108.589844 140.222656 C 107.914062 140.222656 107.367188 140.769531 107.367188 141.445312 C 107.367188 142.121094 107.914062 142.667969 108.589844 142.667969 C 109.265625 142.667969 109.8125 142.121094 109.8125 141.445312 " fill-opacity="1" fill-rule="nonzero"/><path fill="#ffffff" d="M 184.613281 125.035156 C 184.613281 124.359375 184.0625 123.8125 183.386719 123.8125 C 182.710938 123.8125 182.164062 124.359375 182.164062 125.035156 C 182.164062 125.707031 182.710938 126.257812 183.386719 126.257812 C 184.0625 126.257812 184.613281 125.707031 184.613281 125.035156 " fill-opacity="1" fill-rule="nonzero"/><path fill="#ffffff" d="M 112.292969 193.15625 C 112.292969 192.480469 111.746094 191.933594 111.070312 191.933594 C 110.394531 191.933594 109.847656 192.480469 109.847656 193.15625 C 109.847656 193.832031 110.394531 194.378906 111.070312 194.378906 C 111.746094 194.378906 112.292969 193.832031 112.292969 193.15625 " fill-opacity="1" fill-rule="nonzero"/><path fill="#ffffff" d="M 118.589844 239.90625 C 118.589844 239.230469 118.042969 238.683594 117.367188 238.683594 C 116.691406 238.683594 116.144531 239.230469 116.144531 239.90625 C 116.144531 240.582031 116.691406 241.128906 117.367188 241.128906 C 118.042969 241.128906 118.589844 240.582031 118.589844 239.90625 " fill-opacity="1" fill-rule="nonzero"/><path fill="#ffffff" d="M 192.355469 243.914062 C 192.355469 243.238281 191.808594 242.691406 191.136719 242.691406 C 190.460938 242.691406 189.910156 243.238281 189.910156 243.914062 C 189.910156 244.585938 190.460938 245.136719 191.136719 245.136719 C 191.808594 245.136719 192.355469 244.585938 192.355469 243.914062 " fill-opacity="1" fill-rule="nonzero"/><path fill="#ffffff" d="M 162.285156 256.125 C 162.285156 255.449219 161.738281 254.902344 161.0625 254.902344 C 160.386719 254.902344 159.839844 255.449219 159.839844 256.125 C 159.839844 256.800781 160.386719 257.347656 161.0625 257.347656 C 161.738281 257.347656 162.285156 256.800781 162.285156 256.125 " fill-opacity="1" fill-rule="nonzero"/><path fill="#ffffff" d="M 96.261719 196.398438 C 96.261719 195.722656 95.714844 195.175781 95.039062 195.175781 C 94.367188 195.175781 93.816406 195.722656 93.816406 196.398438 C 93.816406 197.074219 94.367188 197.621094 95.039062 197.621094 C 95.714844 197.621094 96.261719 197.074219 96.261719 196.398438 " fill-opacity="1" fill-rule="nonzero"/><path fill="#ffffff" d="M 101.03125 225.210938 C 101.03125 224.535156 100.484375 223.988281 99.8125 223.988281 C 99.136719 223.988281 98.589844 224.535156 98.589844 225.210938 C 98.589844 225.886719 99.136719 226.433594 99.8125 226.433594 C 100.484375 226.433594 101.03125 225.886719 101.03125 225.210938 " fill-opacity="1" fill-rule="nonzero"/><path fill="#ffffff" d="M 122.023438 162.128906 C 122.023438 161.453125 121.476562 160.90625 120.800781 160.90625 C 120.125 160.90625 119.578125 161.453125 119.578125 162.128906 C 119.578125 162.804688 120.125 163.351562 120.800781 163.351562 C 121.476562 163.351562 122.023438 162.804688 122.023438 162.128906 " fill-opacity="1" fill-rule="nonzero"/><path fill="#ffffff" d="M 100.078125 166.058594 C 100.078125 165.382812 99.53125 164.835938 98.855469 164.835938 C 98.179688 164.835938 97.632812 165.382812 97.632812 166.058594 C 97.632812 166.734375 98.179688 167.28125 98.855469 167.28125 C 99.53125 167.28125 100.078125 166.734375 100.078125 166.058594 " fill-opacity="1" fill-rule="nonzero"/><path fill="#ffffff" d="M 150.074219 123.125 C 150.074219 122.449219 149.527344 121.902344 148.851562 121.902344 C 148.175781 121.902344 147.628906 122.449219 147.628906 123.125 C 147.628906 123.800781 148.175781 124.347656 148.851562 124.347656 C 149.527344 124.347656 150.074219 123.800781 150.074219 123.125 " fill-opacity="1" fill-rule="nonzero"/><path fill="#ffffff" d="M 190.929688 228.457031 C 190.929688 227.453125 190.117188 226.640625 189.113281 226.640625 C 188.109375 226.640625 187.296875 227.453125 187.296875 228.457031 C 187.296875 229.457031 188.109375 230.269531 189.113281 230.269531 C 190.117188 230.269531 190.929688 229.457031 190.929688 228.457031 " fill-opacity="1" fill-rule="nonzero"/><path fill="#ffffff" d="M 133.300781 225.785156 C 133.300781 224.78125 132.488281 223.96875 131.488281 223.96875 C 130.484375 223.96875 129.671875 224.78125 129.671875 225.785156 C 129.671875 226.789062 130.484375 227.601562 131.488281 227.601562 C 132.488281 227.601562 133.300781 226.789062 133.300781 225.785156 " fill-opacity="1" fill-rule="nonzero"/><path fill="#ffffff" d="M 163.070312 242.195312 C 163.070312 241.191406 162.257812 240.378906 161.253906 240.378906 C 160.25 240.378906 159.4375 241.191406 159.4375 242.195312 C 159.4375 243.199219 160.25 244.011719 161.253906 244.011719 C 162.257812 244.011719 163.070312 243.199219 163.070312 242.195312 " fill-opacity="1" fill-rule="nonzero"/><path fill="#ffffff" d="M 141.5 260.5625 L 159.558594 254.265625 L 182.652344 259.304688 Z M 159.535156 253.917969 L 159.492188 253.933594 L 139.339844 260.964844 L 185.367188 259.554688 L 159.535156 253.917969 " fill-opacity="1" fill-rule="nonzero"/><path fill="#ffffff" d="M 188.128906 252.894531 L 207.5 245.222656 L 184.496094 258.945312 Z M 209.300781 244.152344 L 187.898438 252.625 L 183.523438 259.914062 L 209.449219 244.449219 L 209.300781 244.152344 " fill-opacity="1" fill-rule="nonzero"/><path fill="#ffffff" d="M 139.960938 260.296875 L 106.007812 239.921875 L 132.746094 247.5625 Z M 103.667969 238.90625 L 140.878906 261.234375 L 132.972656 247.277344 L 132.90625 247.261719 L 103.667969 238.90625 " fill-opacity="1" fill-rule="nonzero"/><path fill="#ffffff" d="M 104.671875 238.816406 L 89.128906 213.199219 L 104.671875 227.476562 Z M 87.628906 211.367188 L 105.003906 240.011719 L 105.003906 227.332031 L 104.949219 227.28125 L 87.628906 211.367188 " fill-opacity="1" fill-rule="nonzero"/><path fill="#ffffff" d="M 88.503906 211.660156 L 86.449219 181.226562 L 92.207031 204.257812 Z M 86.316406 179.328125 L 85.988281 179.378906 L 88.253906 212.90625 L 92.558594 204.296875 L 86.316406 179.328125 " fill-opacity="1" fill-rule="nonzero"/><path fill="#ffffff" d="M 86.457031 178.984375 L 95.8125 150.070312 L 96.660156 172.605469 Z M 96.074219 148.175781 L 85.855469 179.75 L 97.003906 172.785156 L 96.996094 172.6875 L 96.074219 148.175781 " fill-opacity="1" fill-rule="nonzero"/><path fill="#ffffff" d="M 96.589844 148.667969 L 116.386719 127.183594 L 110.488281 142.769531 Z M 117.308594 125.691406 L 95.296875 149.578125 L 110.75 143.019531 L 110.777344 142.953125 L 117.308594 125.691406 " fill-opacity="1" fill-rule="nonzero"/><path fill="#ffffff" d="M 178.738281 127.15625 L 166.371094 114.359375 L 199.207031 125.449219 Z M 165.175781 113.605469 L 178.609375 127.5 L 178.6875 127.492188 L 200.839844 125.648438 L 165.175781 113.605469 " fill-opacity="1" fill-rule="nonzero"/><path fill="#ffffff" d="M 117.722656 126.21875 L 138.546875 116.640625 L 131.882812 125.386719 Z M 139.625 115.777344 L 115.972656 126.65625 L 132.054688 125.710938 L 132.101562 125.648438 L 139.625 115.777344 " fill-opacity="1" fill-rule="nonzero"/><path fill="#ffffff" d="M 139.992188 116.300781 L 165.042969 114.210938 L 154.1875 120.476562 Z M 166.503906 113.753906 L 138.183594 116.117188 L 154.230469 120.835938 L 154.292969 120.800781 L 166.503906 113.753906 " fill-opacity="1" fill-rule="nonzero"/><path fill="#ffffff" d="M 160.246094 253.894531 L 182.597656 241.425781 L 187.757812 252.601562 Z M 182.75 240.960938 L 158.847656 254.292969 L 188.269531 252.914062 L 182.75 240.960938 " fill-opacity="1" fill-rule="nonzero"/><path fill="#ffffff" d="M 133.890625 247.507812 L 155.441406 245.816406 L 159.246094 253.84375 Z M 155.644531 245.464844 L 155.53125 245.476562 L 131.828125 247.335938 L 159.847656 254.339844 L 155.644531 245.464844 " fill-opacity="1" fill-rule="nonzero"/><path fill="#ffffff" d="M 132.699219 247.101562 L 105.445312 227.636719 L 133.023438 230.445312 Z M 104.230469 227.175781 L 133.019531 247.738281 L 133.363281 230.144531 L 133.210938 230.128906 L 104.230469 227.175781 " fill-opacity="1" fill-rule="nonzero"/><path fill="#ffffff" d="M 104.871094 227.117188 L 92.859375 204.8125 L 112.59375 218.539062 Z M 91.90625 203.742188 L 104.804688 227.691406 L 113.09375 218.480469 L 91.90625 203.742188 " fill-opacity="1" fill-rule="nonzero"/><path fill="#ffffff" d="M 133.503906 230.304688 L 155.378906 217.464844 L 155.378906 245.324219 Z M 155.710938 216.882812 L 155.457031 217.03125 L 132.882812 230.285156 L 133.097656 230.433594 L 155.710938 245.957031 L 155.710938 216.882812 " fill-opacity="1" fill-rule="nonzero"/><path fill="#ffffff" d="M 155.710938 245.445312 L 155.710938 217.542969 L 182.300781 241.085938 Z M 155.378906 216.804688 L 155.378906 245.835938 L 183.050781 241.300781 L 182.785156 241.066406 L 155.378906 216.804688 " fill-opacity="1" fill-rule="nonzero"/><path fill="#ffffff" d="M 182.902344 241.285156 L 209.144531 231.390625 L 188.066406 252.472656 Z M 210.472656 230.535156 L 182.449219 241.101562 L 182.523438 241.261719 L 187.960938 253.046875 L 210.472656 230.535156 " fill-opacity="1" fill-rule="nonzero"/><path fill="#ffffff" d="M 113.433594 218.65625 L 154.894531 217.359375 L 133.191406 230.101562 Z M 156.191406 216.988281 L 112.253906 218.359375 L 133.191406 230.488281 L 133.277344 230.441406 L 156.191406 216.988281 " fill-opacity="1" fill-rule="nonzero"/><path fill="#ffffff" d="M 92.640625 204.253906 L 113.558594 183.339844 L 112.683594 218.195312 Z M 113.910156 182.511719 L 92.125 204.300781 L 113.003906 218.824219 L 113.011719 218.511719 L 113.910156 182.511719 " fill-opacity="1" fill-rule="nonzero"/><path fill="#ffffff" d="M 92.617188 203.804688 L 96.960938 172.96875 L 113.464844 182.957031 Z M 96.699219 172.421875 L 92.148438 204.746094 L 114.003906 182.894531 L 96.699219 172.421875 " fill-opacity="1" fill-rule="nonzero"/><path fill="#ffffff" d="M 97.046875 172.628906 L 110.503906 143.542969 L 113.542969 182.617188 Z M 110.734375 142.246094 L 96.617188 172.761719 L 96.746094 172.839844 L 113.925781 183.238281 L 113.898438 182.914062 L 110.734375 142.246094 " fill-opacity="1" fill-rule="nonzero"/><path fill="#ffffff" d="M 111.023438 142.78125 L 131.9375 125.792969 L 147.183594 147.570312 Z M 132.003906 125.304688 L 131.863281 125.417969 L 110.214844 143.007812 L 147.890625 148.003906 L 147.675781 147.691406 L 132.003906 125.304688 " fill-opacity="1" fill-rule="nonzero"/><path fill="#ffffff" d="M 132.25 125.65625 L 153.984375 120.875 L 147.464844 147.390625 Z M 154.4375 120.433594 L 131.691406 125.441406 L 147.613281 148.183594 L 154.4375 120.433594 " fill-opacity="1" fill-rule="nonzero"/><path fill="#ffffff" d="M 135.558594 230.617188 C 135.558594 229.355469 134.53125 228.328125 133.269531 228.328125 C 132.003906 228.328125 130.976562 229.355469 130.976562 230.617188 C 130.976562 231.882812 132.003906 232.90625 133.269531 232.90625 C 134.53125 232.90625 135.558594 231.882812 135.558594 230.617188 " fill-opacity="1" fill-rule="nonzero"/><path fill="#ffffff" d="M 134.828125 247.15625 C 134.828125 246.152344 134.015625 245.339844 133.011719 245.339844 C 132.011719 245.339844 131.199219 246.152344 131.199219 247.15625 C 131.199219 248.160156 132.011719 248.972656 133.011719 248.972656 C 134.015625 248.972656 134.828125 248.160156 134.828125 247.15625 " fill-opacity="1" fill-rule="nonzero"/><g clip-path="url(#85d842fa51)"><path fill="#ffffff" d="M 211.628906 231.382812 C 211.628906 230.117188 210.605469 229.09375 209.339844 229.09375 C 208.074219 229.09375 207.050781 230.117188 207.050781 231.382812 C 207.050781 232.648438 208.074219 233.671875 209.339844 233.671875 C 210.605469 233.671875 211.628906 232.648438 211.628906 231.382812 " fill-opacity="1" fill-rule="nonzero"/></g><path fill="#ffffff" d="M 114.949219 218.40625 C 114.949219 217.140625 113.921875 216.117188 112.660156 216.117188 C 111.394531 216.117188 110.371094 217.140625 110.371094 218.40625 C 110.371094 219.671875 111.394531 220.695312 112.660156 220.695312 C 113.921875 220.695312 114.949219 219.671875 114.949219 218.40625 " fill-opacity="1" fill-rule="nonzero"/><path fill="#ffffff" d="M 157.691406 245.375 C 157.691406 244.109375 156.667969 243.085938 155.402344 243.085938 C 154.136719 243.085938 153.113281 244.109375 153.113281 245.375 C 153.113281 246.640625 154.136719 247.664062 155.402344 247.664062 C 156.667969 247.664062 157.691406 246.640625 157.691406 245.375 " fill-opacity="1" fill-rule="nonzero"/><path fill="#ffffff" d="M 184.914062 240.796875 C 184.914062 239.53125 183.890625 238.507812 182.625 238.507812 C 181.359375 238.507812 180.335938 239.53125 180.335938 240.796875 C 180.335938 242.058594 181.359375 243.085938 182.625 243.085938 C 183.890625 243.085938 184.914062 242.058594 184.914062 240.796875 " fill-opacity="1" fill-rule="nonzero"/><path fill="#ffffff" d="M 189.78125 252.5 C 189.78125 251.496094 188.972656 250.683594 187.96875 250.683594 C 186.964844 250.683594 186.152344 251.496094 186.152344 252.5 C 186.152344 253.503906 186.964844 254.316406 187.96875 254.316406 C 188.972656 254.316406 189.78125 253.503906 189.78125 252.5 " fill-opacity="1" fill-rule="nonzero"/><path fill="#ffffff" d="M 185.96875 259.878906 C 185.96875 258.875 185.152344 258.0625 184.152344 258.0625 C 183.148438 258.0625 182.335938 258.875 182.335938 259.878906 C 182.335938 260.878906 183.148438 261.691406 184.152344 261.691406 C 185.152344 261.691406 185.96875 260.878906 185.96875 259.878906 " fill-opacity="1" fill-rule="nonzero"/><path fill="#ffffff" d="M 161.253906 254.023438 C 161.253906 253.023438 160.441406 252.210938 159.4375 252.210938 C 158.4375 252.210938 157.625 253.023438 157.625 254.023438 C 157.625 255.027344 158.4375 255.839844 159.4375 255.839844 C 160.441406 255.839844 161.253906 255.027344 161.253906 254.023438 " fill-opacity="1" fill-rule="nonzero"/><g clip-path="url(#59672c6b67)"><path fill="#ffffff" d="M 141.953125 260.640625 C 141.953125 259.636719 141.140625 258.824219 140.136719 258.824219 C 139.132812 258.824219 138.320312 259.636719 138.320312 260.640625 C 138.320312 261.644531 139.132812 262.457031 140.136719 262.457031 C 141.140625 262.457031 141.953125 261.644531 141.953125 260.640625 " fill-opacity="1" fill-rule="nonzero"/></g><path fill="#ffffff" d="M 106.585938 239.015625 C 106.585938 238.011719 105.773438 237.199219 104.773438 237.199219 C 103.769531 237.199219 102.957031 238.011719 102.957031 239.015625 C 102.957031 240.015625 103.769531 240.828125 104.773438 240.828125 C 105.773438 240.828125 106.585938 240.015625 106.585938 239.015625 " fill-opacity="1" fill-rule="nonzero"/><path fill="#ffffff" d="M 107.097656 227.058594 C 107.097656 226.054688 106.285156 225.242188 105.28125 225.242188 C 104.277344 225.242188 103.464844 226.054688 103.464844 227.058594 C 103.464844 228.058594 104.277344 228.871094 105.28125 228.871094 C 106.285156 228.871094 107.097656 228.058594 107.097656 227.058594 " fill-opacity="1" fill-rule="nonzero"/><path fill="#ffffff" d="M 94.628906 204.160156 C 94.628906 203.15625 93.816406 202.34375 92.8125 202.34375 C 91.8125 202.34375 91 203.15625 91 204.160156 C 91 205.160156 91.8125 205.976562 92.8125 205.976562 C 93.816406 205.976562 94.628906 205.160156 94.628906 204.160156 " fill-opacity="1" fill-rule="nonzero"/><path fill="#ffffff" d="M 97.9375 149.457031 C 97.9375 148.457031 97.125 147.640625 96.121094 147.640625 C 95.121094 147.640625 94.304688 148.457031 94.304688 149.457031 C 94.304688 150.460938 95.121094 151.273438 96.121094 151.273438 C 97.125 151.273438 97.9375 150.460938 97.9375 149.457031 " fill-opacity="1" fill-rule="nonzero"/><path fill="#ffffff" d="M 118.035156 126.050781 C 118.035156 125.050781 117.222656 124.234375 116.222656 124.234375 C 115.21875 124.234375 114.40625 125.050781 114.40625 126.050781 C 114.40625 127.054688 115.21875 127.867188 116.222656 127.867188 C 117.222656 127.867188 118.035156 127.054688 118.035156 126.050781 " fill-opacity="1" fill-rule="nonzero"/><path fill="#ffffff" d="M 140.644531 116.128906 C 140.644531 115.125 139.832031 114.3125 138.828125 114.3125 C 137.828125 114.3125 137.015625 115.125 137.015625 116.128906 C 137.015625 117.132812 137.828125 117.945312 138.828125 117.945312 C 139.832031 117.945312 140.644531 117.132812 140.644531 116.128906 " fill-opacity="1" fill-rule="nonzero"/><g clip-path="url(#ade0d56e57)"><path fill="#ffffff" d="M 167.613281 114.347656 C 167.613281 113.34375 166.800781 112.53125 165.800781 112.53125 C 164.796875 112.53125 163.984375 113.34375 163.984375 114.347656 C 163.984375 115.351562 164.796875 116.164062 165.800781 116.164062 C 166.800781 116.164062 167.613281 115.351562 167.613281 114.347656 " fill-opacity="1" fill-rule="nonzero"/></g><path fill="#ffffff" d="M 202.722656 125.796875 C 202.722656 124.792969 201.910156 123.980469 200.910156 123.980469 C 199.90625 123.980469 199.09375 124.792969 199.09375 125.796875 C 199.09375 126.800781 199.90625 127.613281 200.910156 127.613281 C 201.910156 127.613281 202.722656 126.800781 202.722656 125.796875 " fill-opacity="1" fill-rule="nonzero"/><path fill="#ffffff" d="M 210.867188 244.355469 C 210.867188 243.355469 210.054688 242.542969 209.050781 242.542969 C 208.046875 242.542969 207.234375 243.355469 207.234375 244.355469 C 207.234375 245.359375 208.046875 246.171875 209.050781 246.171875 C 210.054688 246.171875 210.867188 245.359375 210.867188 244.355469 " fill-opacity="1" fill-rule="nonzero"/><path fill="#ffffff" d="M 133.8125 126.304688 C 133.8125 125.304688 132.996094 124.492188 131.996094 124.492188 C 130.992188 124.492188 130.179688 125.304688 130.179688 126.304688 C 130.179688 127.308594 130.992188 128.121094 131.996094 128.121094 C 132.996094 128.121094 133.8125 127.308594 133.8125 126.304688 " fill-opacity="1" fill-rule="nonzero"/><path fill="#ffffff" d="M 90.304688 212.300781 C 90.304688 211.296875 89.492188 210.484375 88.488281 210.484375 C 87.484375 210.484375 86.671875 211.296875 86.671875 212.300781 C 86.671875 213.304688 87.484375 214.117188 88.488281 214.117188 C 89.492188 214.117188 90.304688 213.304688 90.304688 212.300781 " fill-opacity="1" fill-rule="nonzero"/><g clip-path="url(#ef2b7fcce6)"><path fill="#ffffff" d="M 87.761719 178.972656 C 87.761719 177.96875 86.949219 177.15625 85.945312 177.15625 C 84.941406 177.15625 84.128906 177.96875 84.128906 178.972656 C 84.128906 179.972656 84.941406 180.785156 85.945312 180.785156 C 86.949219 180.785156 87.761719 179.972656 87.761719 178.972656 " fill-opacity="1" fill-rule="nonzero"/></g><path fill="#ffffff" d="M 149.550781 147.929688 C 149.550781 146.667969 148.523438 145.640625 147.261719 145.640625 C 145.996094 145.640625 144.972656 146.667969 144.972656 147.929688 C 144.972656 149.195312 145.996094 150.222656 147.261719 150.222656 C 148.523438 150.222656 149.550781 149.195312 149.550781 147.929688 " fill-opacity="1" fill-rule="nonzero"/><path fill="#ffffff" d="M 156.675781 121.21875 C 156.675781 119.953125 155.648438 118.929688 154.386719 118.929688 C 153.121094 118.929688 152.09375 119.953125 152.09375 121.21875 C 152.09375 122.480469 153.121094 123.507812 154.386719 123.507812 C 155.648438 123.507812 156.675781 122.480469 156.675781 121.21875 " fill-opacity="1" fill-rule="nonzero"/><path fill="#ffffff" d="M 181.351562 127.832031 C 181.351562 126.566406 180.328125 125.542969 179.0625 125.542969 C 177.800781 125.542969 176.773438 126.566406 176.773438 127.832031 C 176.773438 129.097656 177.800781 130.121094 179.0625 130.121094 C 180.328125 130.121094 181.351562 129.097656 181.351562 127.832031 " fill-opacity="1" fill-rule="nonzero"/><path fill="#ffffff" d="M 98.667969 173.121094 C 98.667969 171.855469 97.640625 170.828125 96.375 170.828125 C 95.113281 170.828125 94.085938 171.855469 94.085938 173.121094 C 94.085938 174.382812 95.113281 175.410156 96.375 175.410156 C 97.640625 175.410156 98.667969 174.382812 98.667969 173.121094 " fill-opacity="1" fill-rule="nonzero"/><path fill="#ffffff" d="M 112.660156 143.097656 C 112.660156 141.832031 111.632812 140.808594 110.371094 140.808594 C 109.105469 140.808594 108.078125 141.832031 108.078125 143.097656 C 108.078125 144.363281 109.105469 145.386719 110.371094 145.386719 C 111.632812 145.386719 112.660156 144.363281 112.660156 143.097656 " fill-opacity="1" fill-rule="nonzero"/><path fill="#ffffff" d="M 158.132812 217.136719 C 158.132812 215.347656 156.683594 213.894531 154.894531 213.894531 C 153.105469 213.894531 151.65625 215.347656 151.65625 217.136719 C 151.65625 218.921875 153.105469 220.375 154.894531 220.375 C 156.683594 220.375 158.132812 218.921875 158.132812 217.136719 " fill-opacity="1" fill-rule="nonzero"/><path fill="#ffffff" d="M 116.660156 182.789062 C 116.660156 181 115.210938 179.550781 113.421875 179.550781 C 111.632812 179.550781 110.183594 181 110.183594 182.789062 C 110.183594 184.578125 111.632812 186.027344 113.421875 186.027344 C 115.210938 186.027344 116.660156 184.578125 116.660156 182.789062 " fill-opacity="1" fill-rule="nonzero"/><path fill="#ffffff" d="M 184.371094 135.355469 L 184.371094 136.679688 L 183.734375 136.679688 L 183.734375 135.355469 L 184.371094 135.355469 " fill-opacity="1" fill-rule="nonzero"/><path fill="#ffffff" d="M 186.472656 135.355469 L 186.472656 136.679688 L 185.832031 136.679688 L 185.832031 135.355469 L 186.472656 135.355469 " fill-opacity="1" fill-rule="nonzero"/><path fill="#ffffff" d="M 186.472656 137.621094 L 186.472656 138.949219 L 185.832031 138.949219 L 185.832031 137.621094 L 186.472656 137.621094 " fill-opacity="1" fill-rule="nonzero"/><path fill="#ffffff" d="M 184.371094 137.621094 L 184.371094 138.949219 L 183.734375 138.949219 L 183.734375 137.621094 L 184.371094 137.621094 " fill-opacity="1" fill-rule="nonzero"/><path fill="#ffffff" d="M 184.371094 139.886719 L 184.371094 141.214844 L 183.734375 141.214844 L 183.734375 139.886719 L 184.371094 139.886719 " fill-opacity="1" fill-rule="nonzero"/><path fill="#ffffff" d="M 186.472656 139.886719 L 186.472656 141.214844 L 185.832031 141.214844 L 185.832031 139.886719 L 186.472656 139.886719 " fill-opacity="1" fill-rule="nonzero"/><path fill="#ffffff" d="M 217.703125 152.039062 L 217.703125 153.367188 L 217.066406 153.367188 L 217.066406 152.039062 L 217.703125 152.039062 " fill-opacity="1" fill-rule="nonzero"/><path fill="#ffffff" d="M 217.703125 154.308594 L 217.703125 155.632812 L 217.066406 155.632812 L 217.066406 154.308594 L 217.703125 154.308594 " fill-opacity="1" fill-rule="nonzero"/><path fill="#ffffff" d="M 217.703125 156.839844 L 217.703125 158.167969 L 217.066406 158.167969 L 217.066406 156.839844 L 217.703125 156.839844 " fill-opacity="1" fill-rule="nonzero"/><path fill="#ffffff" d="M 215.429688 140.628906 L 215.429688 141.214844 L 209.910156 141.214844 L 209.910156 140.628906 L 215.429688 140.628906 " fill-opacity="1" fill-rule="nonzero"/><path fill="#ffffff" d="M 219.195312 148.332031 C 219.195312 148.839844 218.867188 149.25 218.457031 149.25 C 218.050781 149.25 217.71875 148.839844 217.71875 148.332031 C 217.71875 147.824219 218.050781 147.410156 218.457031 147.410156 C 218.867188 147.410156 219.195312 147.824219 219.195312 148.332031 " fill-opacity="1" fill-rule="nonzero"/><path fill="#ffffff" d="M 215.429688 141.957031 L 215.429688 142.542969 L 209.910156 142.542969 L 209.910156 141.957031 L 215.429688 141.957031 " fill-opacity="1" fill-rule="nonzero"/><path fill="#ffffff" d="M 215.429688 143.355469 L 215.429688 143.941406 L 209.910156 143.941406 L 209.910156 143.355469 L 215.429688 143.355469 " fill-opacity="1" fill-rule="nonzero"/><path fill="#ffffff" d="M 215.429688 144.683594 L 215.429688 145.269531 L 209.910156 145.269531 L 209.910156 144.683594 L 215.429688 144.683594 " fill-opacity="1" fill-rule="nonzero"/><path fill="#ffffff" d="M 215.429688 146.082031 L 215.429688 146.667969 L 209.910156 146.667969 L 209.910156 146.082031 L 215.429688 146.082031 " fill-opacity="1" fill-rule="nonzero"/><path fill="#ffffff" d="M 215.429688 147.410156 L 215.429688 147.996094 L 209.910156 147.996094 L 209.910156 147.410156 L 215.429688 147.410156 " fill-opacity="1" fill-rule="nonzero"/><path fill="#ffffff" d="M 215.429688 149.972656 L 215.429688 150.558594 L 209.910156 150.558594 L 209.910156 149.972656 L 215.429688 149.972656 " fill-opacity="1" fill-rule="nonzero"/><path fill="#ffffff" d="M 215.429688 148.644531 L 215.429688 149.230469 L 209.910156 149.230469 L 209.910156 148.644531 L 215.429688 148.644531 " fill-opacity="1" fill-rule="nonzero"/><path fill="#ffffff" d="M 185.554688 153.195312 L 185.554688 155.085938 L 184.648438 155.085938 L 184.648438 153.195312 L 185.554688 153.195312 " fill-opacity="1" fill-rule="nonzero"/><path fill="#ffffff" d="M 187.027344 146.882812 L 187.027344 148.773438 L 186.121094 148.773438 L 186.121094 146.882812 L 187.027344 146.882812 " fill-opacity="1" fill-rule="nonzero"/><path fill="#ffffff" d="M 184.039062 146.882812 L 184.039062 148.773438 L 183.132812 148.773438 L 183.132812 146.882812 L 184.039062 146.882812 " fill-opacity="1" fill-rule="nonzero"/><path fill="#ffffff" d="M 184.039062 150.109375 L 184.039062 151.996094 L 183.132812 151.996094 L 183.132812 150.109375 L 184.039062 150.109375 " fill-opacity="1" fill-rule="nonzero"/><path fill="#ffffff" d="M 187.027344 150.109375 L 187.027344 151.996094 L 186.121094 151.996094 L 186.121094 150.109375 L 187.027344 150.109375 " fill-opacity="1" fill-rule="nonzero"/><path fill="#ffffff" d="M 191.265625 155.757812 L 191.265625 156.585938 L 178.03125 156.585938 L 178.03125 155.757812 L 191.265625 155.757812 " fill-opacity="1" fill-rule="nonzero"/><path fill="#ffffff" d="M 256.335938 199.796875 L 256.335938 201.445312 L 254.332031 201.445312 L 254.332031 199.796875 L 256.335938 199.796875 " fill-opacity="1" fill-rule="nonzero"/><path fill="#ffffff" d="M 249.75 199.796875 L 249.75 201.445312 L 247.75 201.445312 L 247.75 199.796875 L 249.75 199.796875 " fill-opacity="1" fill-rule="nonzero"/><path fill="#ffffff" d="M 249.75 197.222656 L 249.75 198.871094 L 247.75 198.871094 L 247.75 197.222656 L 249.75 197.222656 " fill-opacity="1" fill-rule="nonzero"/><path fill="#ffffff" d="M 256.335938 197.222656 L 256.335938 198.871094 L 254.332031 198.871094 L 254.332031 197.222656 L 256.335938 197.222656 " fill-opacity="1" fill-rule="nonzero"/><path fill="#ffffff" d="M 249.75 194.605469 L 249.75 196.25 L 247.75 196.25 L 247.75 194.605469 L 249.75 194.605469 " fill-opacity="1" fill-rule="nonzero"/><path fill="#ffffff" d="M 256.335938 194.605469 L 256.335938 196.25 L 254.332031 196.25 L 254.332031 194.605469 L 256.335938 194.605469 " fill-opacity="1" fill-rule="nonzero"/><path fill="#ffffff" d="M 249.75 192.027344 L 249.75 193.675781 L 247.75 193.675781 L 247.75 192.027344 L 249.75 192.027344 " fill-opacity="1" fill-rule="nonzero"/><path fill="#ffffff" d="M 256.335938 192.027344 L 256.335938 193.675781 L 254.332031 193.675781 L 254.332031 192.027344 L 256.335938 192.027344 " fill-opacity="1" fill-rule="nonzero"/><path fill="#ffffff" d="M 249.75 189.265625 L 249.75 190.914062 L 247.75 190.914062 L 247.75 189.265625 L 249.75 189.265625 " fill-opacity="1" fill-rule="nonzero"/><path fill="#ffffff" d="M 256.335938 189.265625 L 256.335938 190.914062 L 254.332031 190.914062 L 254.332031 189.265625 L 256.335938 189.265625 " fill-opacity="1" fill-rule="nonzero"/><path fill="#ffffff" d="M 249.75 186.695312 L 249.75 188.339844 L 247.75 188.339844 L 247.75 186.695312 L 249.75 186.695312 " fill-opacity="1" fill-rule="nonzero"/><path fill="#ffffff" d="M 256.335938 186.695312 L 256.335938 188.339844 L 254.332031 188.339844 L 254.332031 186.695312 L 256.335938 186.695312 " fill-opacity="1" fill-rule="nonzero"/><path fill="#ffffff" d="M 249.75 184.074219 L 249.75 185.71875 L 247.75 185.71875 L 247.75 184.074219 L 249.75 184.074219 " fill-opacity="1" fill-rule="nonzero"/><path fill="#ffffff" d="M 256.335938 184.074219 L 256.335938 185.71875 L 254.332031 185.71875 L 254.332031 184.074219 L 256.335938 184.074219 " fill-opacity="1" fill-rule="nonzero"/><path fill="#ffffff" d="M 263.691406 175.863281 L 263.691406 177.507812 L 262.550781 177.507812 L 262.550781 175.863281 L 263.691406 175.863281 " fill-opacity="1" fill-rule="nonzero"/><path fill="#ffffff" d="M 263.691406 179.289062 L 263.691406 180.933594 L 262.550781 180.933594 L 262.550781 179.289062 L 263.691406 179.289062 " fill-opacity="1" fill-rule="nonzero"/><path fill="#ffffff" d="M 256.335938 181.5 L 256.335938 183.144531 L 254.332031 183.144531 L 254.332031 181.5 L 256.335938 181.5 " fill-opacity="1" fill-rule="nonzero"/><path fill="#ffffff" d="M 249.75 181.5 L 249.75 183.144531 L 247.75 183.144531 L 247.75 181.5 L 249.75 181.5 " fill-opacity="1" fill-rule="nonzero"/><path fill="#ffffff" d="M 244.421875 169.824219 L 244.421875 170.550781 L 234.566406 170.550781 L 234.566406 169.824219 L 244.421875 169.824219 " fill-opacity="1" fill-rule="nonzero"/><path fill="#ffffff" d="M 244.421875 171.472656 L 244.421875 172.195312 L 234.566406 172.195312 L 234.566406 171.472656 L 244.421875 171.472656 " fill-opacity="1" fill-rule="nonzero"/><path fill="#ffffff" d="M 244.421875 173.207031 L 244.421875 173.929688 L 234.566406 173.929688 L 234.566406 173.207031 L 244.421875 173.207031 " fill-opacity="1" fill-rule="nonzero"/><path fill="#ffffff" d="M 244.421875 174.851562 L 244.421875 175.578125 L 234.566406 175.578125 L 234.566406 174.851562 L 244.421875 174.851562 " fill-opacity="1" fill-rule="nonzero"/><path fill="#ffffff" d="M 244.421875 176.585938 L 244.421875 177.3125 L 234.566406 177.3125 L 234.566406 176.585938 L 244.421875 176.585938 " fill-opacity="1" fill-rule="nonzero"/><path fill="#ffffff" d="M 244.421875 178.234375 L 244.421875 178.957031 L 234.566406 178.957031 L 234.566406 178.234375 L 244.421875 178.234375 " fill-opacity="1" fill-rule="nonzero"/><path fill="#ffffff" d="M 244.421875 179.765625 L 244.421875 180.488281 L 234.566406 180.488281 L 234.566406 179.765625 L 244.421875 179.765625 " fill-opacity="1" fill-rule="nonzero"/><path fill="#ffffff" d="M 244.421875 181.410156 L 244.421875 182.136719 L 234.566406 182.136719 L 234.566406 181.410156 L 244.421875 181.410156 " fill-opacity="1" fill-rule="nonzero"/><path fill="#ffffff" d="M 244.421875 183.234375 L 244.421875 183.960938 L 234.566406 183.960938 L 234.566406 183.234375 L 244.421875 183.234375 " fill-opacity="1" fill-rule="nonzero"/><path fill="#ffffff" d="M 244.421875 184.882812 L 244.421875 185.609375 L 234.566406 185.609375 L 234.566406 184.882812 L 244.421875 184.882812 " fill-opacity="1" fill-rule="nonzero"/><path fill="#ffffff" d="M 244.421875 186.664062 L 244.421875 187.386719 L 234.566406 187.386719 L 234.566406 186.664062 L 244.421875 186.664062 " fill-opacity="1" fill-rule="nonzero"/><path fill="#ffffff" d="M 244.421875 188.308594 L 244.421875 189.03125 L 234.566406 189.03125 L 234.566406 188.308594 L 244.421875 188.308594 " fill-opacity="1" fill-rule="nonzero"/><path fill="#ffffff" d="M 244.421875 190.085938 L 244.421875 190.8125 L 234.566406 190.8125 L 234.566406 190.085938 L 244.421875 190.085938 " fill-opacity="1" fill-rule="nonzero"/><path fill="#ffffff" d="M 244.421875 191.734375 L 244.421875 192.457031 L 234.566406 192.457031 L 234.566406 191.734375 L 244.421875 191.734375 " fill-opacity="1" fill-rule="nonzero"/><path fill="#ffffff" d="M 244.421875 193.511719 L 244.421875 194.238281 L 234.566406 194.238281 L 234.566406 193.511719 L 244.421875 193.511719 " fill-opacity="1" fill-rule="nonzero"/><path fill="#ffffff" d="M 239.492188 195.160156 L 239.492188 195.882812 L 234.566406 195.882812 L 234.566406 195.160156 L 239.492188 195.160156 " fill-opacity="1" fill-rule="nonzero"/><path fill="#ffffff" d="M 239.492188 196.738281 L 239.492188 197.460938 L 234.566406 197.460938 L 234.566406 196.738281 L 239.492188 196.738281 " fill-opacity="1" fill-rule="nonzero"/><path fill="#ffffff" d="M 224.46875 169.488281 C 224.46875 170.121094 223.878906 170.632812 223.148438 170.632812 C 222.421875 170.632812 221.832031 170.121094 221.832031 169.488281 C 221.832031 168.859375 222.421875 168.347656 223.148438 168.347656 C 223.878906 168.347656 224.46875 168.859375 224.46875 169.488281 " fill-opacity="1" fill-rule="nonzero"/><path fill="#ffffff" d="M 224.46875 166.066406 C 224.46875 166.695312 223.878906 167.207031 223.148438 167.207031 C 222.421875 167.207031 221.832031 166.695312 221.832031 166.066406 C 221.832031 165.433594 222.421875 164.921875 223.148438 164.921875 C 223.878906 164.921875 224.46875 165.433594 224.46875 166.066406 " fill-opacity="1" fill-rule="nonzero"/><path fill="#ffffff" d="M 224.46875 162.640625 C 224.46875 163.269531 223.878906 163.78125 223.148438 163.78125 C 222.421875 163.78125 221.832031 163.269531 221.832031 162.640625 C 221.832031 162.007812 222.421875 161.496094 223.148438 161.496094 C 223.878906 161.496094 224.46875 162.007812 224.46875 162.640625 " fill-opacity="1" fill-rule="nonzero"/><path fill="#ffffff" d="M 224.46875 159.214844 C 224.46875 159.84375 223.878906 160.355469 223.148438 160.355469 C 222.421875 160.355469 221.832031 159.84375 221.832031 159.214844 C 221.832031 158.585938 222.421875 158.070312 223.148438 158.070312 C 223.878906 158.070312 224.46875 158.585938 224.46875 159.214844 " fill-opacity="1" fill-rule="nonzero"/><path fill="#ffffff" d="M 217.742188 159.652344 L 217.742188 160.375 L 207.886719 160.375 L 207.886719 159.652344 L 217.742188 159.652344 " fill-opacity="1" fill-rule="nonzero"/><path fill="#ffffff" d="M 217.742188 161.296875 L 217.742188 162.023438 L 207.886719 162.023438 L 207.886719 161.296875 L 217.742188 161.296875 " fill-opacity="1" fill-rule="nonzero"/><path fill="#ffffff" d="M 217.742188 163.074219 L 217.742188 163.800781 L 207.886719 163.800781 L 207.886719 163.074219 L 217.742188 163.074219 " fill-opacity="1" fill-rule="nonzero"/><path fill="#ffffff" d="M 217.742188 164.722656 L 217.742188 165.445312 L 207.886719 165.445312 L 207.886719 164.722656 L 217.742188 164.722656 " fill-opacity="1" fill-rule="nonzero"/><path fill="#ffffff" d="M 217.742188 166.5 L 217.742188 167.226562 L 207.886719 167.226562 L 207.886719 166.5 L 217.742188 166.5 " fill-opacity="1" fill-rule="nonzero"/><path fill="#ffffff" d="M 217.742188 168.148438 L 217.742188 168.871094 L 207.886719 168.871094 L 207.886719 168.148438 L 217.742188 168.148438 " fill-opacity="1" fill-rule="nonzero"/><path fill="#ffffff" d="M 217.742188 169.925781 L 217.742188 170.652344 L 207.886719 170.652344 L 207.886719 169.925781 L 217.742188 169.925781 " fill-opacity="1" fill-rule="nonzero"/><path fill="#ffffff" d="M 217.742188 171.570312 L 217.742188 172.296875 L 207.886719 172.296875 L 207.886719 171.570312 L 217.742188 171.570312 " fill-opacity="1" fill-rule="nonzero"/><path fill="#ffffff" d="M 217.742188 173.152344 L 217.742188 173.875 L 207.886719 173.875 L 207.886719 173.152344 L 217.742188 173.152344 " fill-opacity="1" fill-rule="nonzero"/><path fill="#ffffff" d="M 217.742188 174.796875 L 217.742188 175.523438 L 207.886719 175.523438 L 207.886719 174.796875 L 217.742188 174.796875 " fill-opacity="1" fill-rule="nonzero"/><path fill="#ffffff" d="M 217.742188 176.519531 L 217.742188 177.246094 L 207.886719 177.246094 L 207.886719 176.519531 L 217.742188 176.519531 " fill-opacity="1" fill-rule="nonzero"/><path fill="#ffffff" d="M 217.742188 178.167969 L 217.742188 178.890625 L 207.886719 178.890625 L 207.886719 178.167969 L 217.742188 178.167969 " fill-opacity="1" fill-rule="nonzero"/><path fill="#ffffff" d="M 217.742188 179.902344 L 217.742188 180.625 L 207.886719 180.625 L 207.886719 179.902344 L 217.742188 179.902344 " fill-opacity="1" fill-rule="nonzero"/><path fill="#ffffff" d="M 217.742188 181.546875 L 217.742188 182.273438 L 207.886719 182.273438 L 207.886719 181.546875 L 217.742188 181.546875 " fill-opacity="1" fill-rule="nonzero"/><path fill="#ffffff" d="M 217.742188 183.285156 L 217.742188 184.007812 L 207.886719 184.007812 L 207.886719 183.285156 L 217.742188 183.285156 " fill-opacity="1" fill-rule="nonzero"/><path fill="#ffffff" d="M 217.742188 184.929688 L 217.742188 185.65625 L 207.886719 185.65625 L 207.886719 184.929688 L 217.742188 184.929688 " fill-opacity="1" fill-rule="nonzero"/><path fill="#ffffff" d="M 224.46875 172.914062 C 224.46875 173.546875 223.878906 174.054688 223.148438 174.054688 C 222.421875 174.054688 221.832031 173.546875 221.832031 172.914062 C 221.832031 172.285156 222.421875 171.773438 223.148438 171.773438 C 223.878906 171.773438 224.46875 172.285156 224.46875 172.914062 " fill-opacity="1" fill-rule="nonzero"/><path fill="#ffffff" d="M 224.46875 176.746094 C 224.46875 177.375 223.878906 177.886719 223.148438 177.886719 C 222.421875 177.886719 221.832031 177.375 221.832031 176.746094 C 221.832031 176.117188 222.421875 175.605469 223.148438 175.605469 C 223.878906 175.605469 224.46875 176.117188 224.46875 176.746094 " fill-opacity="1" fill-rule="nonzero"/><path fill="#ffffff" d="M 224.46875 180.996094 C 224.46875 181.628906 223.878906 182.136719 223.148438 182.136719 C 222.421875 182.136719 221.832031 181.628906 221.832031 180.996094 C 221.832031 180.367188 222.421875 179.855469 223.148438 179.855469 C 223.878906 179.855469 224.46875 180.367188 224.46875 180.996094 " fill-opacity="1" fill-rule="nonzero"/><path fill="#ffffff" d="M 224.46875 184.421875 C 224.46875 185.050781 223.878906 185.5625 223.148438 185.5625 C 222.421875 185.5625 221.832031 185.050781 221.832031 184.421875 C 221.832031 183.792969 222.421875 183.28125 223.148438 183.28125 C 223.878906 183.28125 224.46875 183.792969 224.46875 184.421875 " fill-opacity="1" fill-rule="nonzero"/><path fill="#ffffff" d="M 224.46875 187.847656 C 224.46875 188.480469 223.878906 188.988281 223.148438 188.988281 C 222.421875 188.988281 221.832031 188.480469 221.832031 187.847656 C 221.832031 187.21875 222.421875 186.707031 223.148438 186.707031 C 223.878906 186.707031 224.46875 187.21875 224.46875 187.847656 " fill-opacity="1" fill-rule="nonzero"/><path fill="#ffffff" d="M 224.46875 191.273438 C 224.46875 191.902344 223.878906 192.414062 223.148438 192.414062 C 222.421875 192.414062 221.832031 191.902344 221.832031 191.273438 C 221.832031 190.640625 222.421875 190.132812 223.148438 190.132812 C 223.878906 190.132812 224.46875 190.640625 224.46875 191.273438 " fill-opacity="1" fill-rule="nonzero"/><path fill="#ffffff" d="M 224.46875 194.699219 C 224.46875 195.328125 223.878906 195.839844 223.148438 195.839844 C 222.421875 195.839844 221.832031 195.328125 221.832031 194.699219 C 221.832031 194.066406 222.421875 193.554688 223.148438 193.554688 C 223.878906 193.554688 224.46875 194.066406 224.46875 194.699219 " fill-opacity="1" fill-rule="nonzero"/><path fill="#ffffff" d="M 224.46875 198.121094 C 224.46875 198.753906 223.878906 199.265625 223.148438 199.265625 C 222.421875 199.265625 221.832031 198.753906 221.832031 198.121094 C 221.832031 197.492188 222.421875 196.984375 223.148438 196.984375 C 223.878906 196.984375 224.46875 197.492188 224.46875 198.121094 " fill-opacity="1" fill-rule="nonzero"/><path fill="#ffffff" d="M 224.46875 201.953125 C 224.46875 202.585938 223.878906 203.097656 223.148438 203.097656 C 222.421875 203.097656 221.832031 202.585938 221.832031 201.953125 C 221.832031 201.324219 222.421875 200.8125 223.148438 200.8125 C 223.878906 200.8125 224.46875 201.324219 224.46875 201.953125 " fill-opacity="1" fill-rule="nonzero"/><path fill="#ffffff" d="M 217.742188 205.078125 L 217.742188 205.804688 L 214.6875 205.804688 L 214.6875 205.078125 L 217.742188 205.078125 " fill-opacity="1" fill-rule="nonzero"/><path fill="#ffffff" d="M 217.742188 203.433594 L 217.742188 204.160156 L 214.6875 204.160156 L 214.6875 203.433594 L 217.742188 203.433594 " fill-opacity="1" fill-rule="nonzero"/><path fill="#ffffff" d="M 217.742188 201.855469 L 217.742188 202.582031 L 214.6875 202.582031 L 214.6875 201.855469 L 217.742188 201.855469 " fill-opacity="1" fill-rule="nonzero"/><path fill="#ffffff" d="M 217.742188 200.207031 L 217.742188 200.933594 L 214.6875 200.933594 L 214.6875 200.207031 L 217.742188 200.207031 " fill-opacity="1" fill-rule="nonzero"/><path fill="#ffffff" d="M 217.742188 198.429688 L 217.742188 199.15625 L 214.6875 199.15625 L 214.6875 198.429688 L 217.742188 198.429688 " fill-opacity="1" fill-rule="nonzero"/><path fill="#ffffff" d="M 217.742188 196.785156 L 217.742188 197.507812 L 214.6875 197.507812 L 214.6875 196.785156 L 217.742188 196.785156 " fill-opacity="1" fill-rule="nonzero"/><path fill="#ffffff" d="M 217.742188 195.003906 L 217.742188 195.730469 L 214.6875 195.730469 L 214.6875 195.003906 L 217.742188 195.003906 " fill-opacity="1" fill-rule="nonzero"/><path fill="#ffffff" d="M 217.742188 193.359375 L 217.742188 194.082031 L 207.886719 194.082031 L 207.886719 193.359375 L 217.742188 193.359375 " fill-opacity="1" fill-rule="nonzero"/><path fill="#ffffff" d="M 217.742188 191.578125 L 217.742188 192.304688 L 207.886719 192.304688 L 207.886719 191.578125 L 217.742188 191.578125 " fill-opacity="1" fill-rule="nonzero"/><path fill="#ffffff" d="M 217.742188 189.933594 L 217.742188 190.65625 L 207.886719 190.65625 L 207.886719 189.933594 L 217.742188 189.933594 " fill-opacity="1" fill-rule="nonzero"/><path fill="#ffffff" d="M 217.742188 188.109375 L 217.742188 188.832031 L 207.886719 188.832031 L 207.886719 188.109375 L 217.742188 188.109375 " fill-opacity="1" fill-rule="nonzero"/><path fill="#ffffff" d="M 217.742188 186.460938 L 217.742188 187.1875 L 207.886719 187.1875 L 207.886719 186.460938 L 217.742188 186.460938 " fill-opacity="1" fill-rule="nonzero"/><path fill="#ffffff" d="M 203.796875 171.589844 L 203.796875 173.234375 L 202.65625 173.234375 L 202.65625 171.589844 L 203.796875 171.589844 " fill-opacity="1" fill-rule="nonzero"/><path fill="#ffffff" d="M 200.042969 171.589844 L 200.042969 173.234375 L 198.90625 173.234375 L 198.90625 171.589844 L 200.042969 171.589844 " fill-opacity="1" fill-rule="nonzero"/><path fill="#ffffff" d="M 200.042969 174.164062 L 200.042969 175.808594 L 198.90625 175.808594 L 198.90625 174.164062 L 200.042969 174.164062 " fill-opacity="1" fill-rule="nonzero"/><path fill="#ffffff" d="M 203.796875 174.164062 L 203.796875 175.808594 L 202.65625 175.808594 L 202.65625 174.164062 L 203.796875 174.164062 " fill-opacity="1" fill-rule="nonzero"/><path fill="#ffffff" d="M 203.796875 176.78125 L 203.796875 178.429688 L 202.65625 178.429688 L 202.65625 176.78125 L 203.796875 176.78125 " fill-opacity="1" fill-rule="nonzero"/><path fill="#ffffff" d="M 200.042969 176.78125 L 200.042969 178.429688 L 198.90625 178.429688 L 198.90625 176.78125 L 200.042969 176.78125 " fill-opacity="1" fill-rule="nonzero"/><path fill="#ffffff" d="M 200.042969 179.355469 L 200.042969 181 L 198.90625 181 L 198.90625 179.355469 L 200.042969 179.355469 " fill-opacity="1" fill-rule="nonzero"/><path fill="#ffffff" d="M 203.796875 179.355469 L 203.796875 181 L 202.65625 181 L 202.65625 179.355469 L 203.796875 179.355469 " fill-opacity="1" fill-rule="nonzero"/><path fill="#ffffff" d="M 200.042969 182.257812 L 200.042969 183.90625 L 198.90625 183.90625 L 198.90625 182.257812 L 200.042969 182.257812 " fill-opacity="1" fill-rule="nonzero"/><path fill="#ffffff" d="M 203.796875 182.257812 L 203.796875 183.90625 L 202.65625 183.90625 L 202.65625 182.257812 L 203.796875 182.257812 " fill-opacity="1" fill-rule="nonzero"/><path fill="#ffffff" d="M 200.042969 184.835938 L 200.042969 186.480469 L 198.90625 186.480469 L 198.90625 184.835938 L 200.042969 184.835938 " fill-opacity="1" fill-rule="nonzero"/><path fill="#ffffff" d="M 203.796875 184.835938 L 203.796875 186.480469 L 202.65625 186.480469 L 202.65625 184.835938 L 203.796875 184.835938 " fill-opacity="1" fill-rule="nonzero"/><path fill="#ffffff" d="M 203.796875 187.453125 L 203.796875 189.101562 L 202.65625 189.101562 L 202.65625 187.453125 L 203.796875 187.453125 " fill-opacity="1" fill-rule="nonzero"/><path fill="#ffffff" d="M 200.042969 187.453125 L 200.042969 189.101562 L 198.90625 189.101562 L 198.90625 187.453125 L 200.042969 187.453125 " fill-opacity="1" fill-rule="nonzero"/><path fill="#ffffff" d="M 200.042969 190.027344 L 200.042969 191.671875 L 198.90625 191.671875 L 198.90625 190.027344 L 200.042969 190.027344 " fill-opacity="1" fill-rule="nonzero"/><path fill="#ffffff" d="M 203.796875 190.027344 L 203.796875 191.671875 L 202.65625 191.671875 L 202.65625 190.027344 L 203.796875 190.027344 " fill-opacity="1" fill-rule="nonzero"/><path fill="#ffffff" d="M 192.734375 158.175781 L 192.734375 158.898438 L 176.121094 158.898438 L 176.121094 158.175781 L 192.734375 158.175781 " fill-opacity="1" fill-rule="nonzero"/><path fill="#ffffff" d="M 192.734375 159.910156 L 192.734375 160.632812 L 176.121094 160.632812 L 176.121094 159.910156 L 192.734375 159.910156 " fill-opacity="1" fill-rule="nonzero"/><path fill="#ffffff" d="M 192.734375 161.554688 L 192.734375 162.28125 L 176.121094 162.28125 L 176.121094 161.554688 L 192.734375 161.554688 " fill-opacity="1" fill-rule="nonzero"/><path fill="#ffffff" d="M 192.734375 163.292969 L 192.734375 164.015625 L 176.121094 164.015625 L 176.121094 163.292969 L 192.734375 163.292969 " fill-opacity="1" fill-rule="nonzero"/><path fill="#ffffff" d="M 192.734375 164.9375 L 192.734375 165.660156 L 176.121094 165.660156 L 176.121094 164.9375 L 192.734375 164.9375 " fill-opacity="1" fill-rule="nonzero"/><path fill="#ffffff" d="M 192.734375 166.46875 L 192.734375 167.195312 L 176.121094 167.195312 L 176.121094 166.46875 L 192.734375 166.46875 " fill-opacity="1" fill-rule="nonzero"/><path fill="#ffffff" d="M 192.734375 168.117188 L 192.734375 168.839844 L 176.121094 168.839844 L 176.121094 168.117188 L 192.734375 168.117188 " fill-opacity="1" fill-rule="nonzero"/><path fill="#ffffff" d="M 192.734375 169.941406 L 192.734375 170.667969 L 176.121094 170.667969 L 176.121094 169.941406 L 192.734375 169.941406 " fill-opacity="1" fill-rule="nonzero"/><path fill="#ffffff" d="M 192.734375 171.589844 L 192.734375 172.3125 L 176.121094 172.3125 L 176.121094 171.589844 L 192.734375 171.589844 " fill-opacity="1" fill-rule="nonzero"/><path fill="#ffffff" d="M 192.734375 173.367188 L 192.734375 174.089844 L 176.121094 174.089844 L 176.121094 173.367188 L 192.734375 173.367188 " fill-opacity="1" fill-rule="nonzero"/><path fill="#ffffff" d="M 192.734375 175.011719 L 192.734375 175.738281 L 176.121094 175.738281 L 176.121094 175.011719 L 192.734375 175.011719 " fill-opacity="1" fill-rule="nonzero"/><path fill="#ffffff" d="M 192.734375 176.792969 L 192.734375 177.515625 L 176.121094 177.515625 L 176.121094 176.792969 L 192.734375 176.792969 " fill-opacity="1" fill-rule="nonzero"/><path fill="#ffffff" d="M 192.734375 178.4375 L 192.734375 179.164062 L 176.121094 179.164062 L 176.121094 178.4375 L 192.734375 178.4375 " fill-opacity="1" fill-rule="nonzero"/><path fill="#ffffff" d="M 192.734375 180.214844 L 192.734375 180.941406 L 176.121094 180.941406 L 176.121094 180.214844 L 192.734375 180.214844 " fill-opacity="1" fill-rule="nonzero"/><path fill="#ffffff" d="M 192.734375 181.863281 L 192.734375 182.589844 L 176.121094 182.589844 L 176.121094 181.863281 L 192.734375 181.863281 " fill-opacity="1" fill-rule="nonzero"/><path fill="#ffffff" d="M 192.734375 183.441406 L 192.734375 184.167969 L 176.121094 184.167969 L 176.121094 183.441406 L 192.734375 183.441406 " fill-opacity="1" fill-rule="nonzero"/><path fill="#ffffff" d="M 192.734375 185.089844 L 192.734375 185.8125 L 176.121094 185.8125 L 176.121094 185.089844 L 192.734375 185.089844 " fill-opacity="1" fill-rule="nonzero"/><path fill="#ffffff" d="M 192.734375 188.25 L 192.734375 188.976562 L 176.121094 188.976562 L 176.121094 188.25 L 192.734375 188.25 " fill-opacity="1" fill-rule="nonzero"/><path fill="#ffffff" d="M 192.734375 189.984375 L 192.734375 190.710938 L 176.121094 190.710938 L 176.121094 189.984375 L 192.734375 189.984375 " fill-opacity="1" fill-rule="nonzero"/><path fill="#ffffff" d="M 192.734375 191.632812 L 192.734375 192.355469 L 176.121094 192.355469 L 176.121094 191.632812 L 192.734375 191.632812 " fill-opacity="1" fill-rule="nonzero"/><path fill="#ffffff" d="M 192.734375 193.367188 L 192.734375 194.089844 L 176.121094 194.089844 L 176.121094 193.367188 L 192.734375 193.367188 " fill-opacity="1" fill-rule="nonzero"/><path fill="#ffffff" d="M 192.734375 195.015625 L 192.734375 195.738281 L 176.121094 195.738281 L 176.121094 195.015625 L 192.734375 195.015625 " fill-opacity="1" fill-rule="nonzero"/><path fill="#ffffff" d="M 192.734375 196.546875 L 192.734375 197.269531 L 176.121094 197.269531 L 176.121094 196.546875 L 192.734375 196.546875 " fill-opacity="1" fill-rule="nonzero"/><path fill="#ffffff" d="M 180.035156 205.089844 L 180.035156 205.8125 L 176.121094 205.8125 L 176.121094 205.089844 L 180.035156 205.089844 " fill-opacity="1" fill-rule="nonzero"/><path fill="#ffffff" d="M 180.035156 203.441406 L 180.035156 204.167969 L 176.121094 204.167969 L 176.121094 203.441406 L 180.035156 203.441406 " fill-opacity="1" fill-rule="nonzero"/><path fill="#ffffff" d="M 186.84375 200.015625 L 186.84375 200.742188 L 176.121094 200.742188 L 176.121094 200.015625 L 186.84375 200.015625 " fill-opacity="1" fill-rule="nonzero"/><path fill="#ffffff" d="M 186.84375 201.664062 L 186.84375 202.390625 L 176.121094 202.390625 L 176.121094 201.664062 L 186.84375 201.664062 " fill-opacity="1" fill-rule="nonzero"/><path fill="#ffffff" d="M 186.84375 198.191406 L 186.84375 198.917969 L 176.121094 198.917969 L 176.121094 198.191406 L 186.84375 198.191406 " fill-opacity="1" fill-rule="nonzero"/><path fill="#ffffff" d="M 192.734375 198.191406 L 192.734375 198.917969 L 189.570312 198.917969 L 189.570312 198.191406 L 192.734375 198.191406 " fill-opacity="1" fill-rule="nonzero"/><path fill="#ffffff" d="M 192.734375 200.015625 L 192.734375 200.742188 L 189.570312 200.742188 L 189.570312 200.015625 L 192.734375 200.015625 " fill-opacity="1" fill-rule="nonzero"/><path fill="#ffffff" d="M 192.734375 201.664062 L 192.734375 202.390625 L 189.570312 202.390625 L 189.570312 201.664062 L 192.734375 201.664062 " fill-opacity="1" fill-rule="nonzero"/><path fill="#ffffff" d="M 192.734375 203.441406 L 192.734375 204.167969 L 189.570312 204.167969 L 189.570312 203.441406 L 192.734375 203.441406 " fill-opacity="1" fill-rule="nonzero"/><path fill="#ffffff" d="M 192.734375 205.089844 L 192.734375 205.8125 L 189.570312 205.8125 L 189.570312 205.089844 L 192.734375 205.089844 " fill-opacity="1" fill-rule="nonzero"/><path fill="#ffffff" d="M 192.734375 206.867188 L 192.734375 207.59375 L 189.570312 207.59375 L 189.570312 206.867188 L 192.734375 206.867188 " fill-opacity="1" fill-rule="nonzero"/><path fill="#ffffff" d="M 192.734375 208.515625 L 192.734375 209.238281 L 189.570312 209.238281 L 189.570312 208.515625 L 192.734375 208.515625 " fill-opacity="1" fill-rule="nonzero"/><path fill="#ffffff" d="M 192.734375 210.292969 L 192.734375 211.019531 L 189.570312 211.019531 L 189.570312 210.292969 L 192.734375 210.292969 " fill-opacity="1" fill-rule="nonzero"/><path fill="#ffffff" d="M 192.734375 211.9375 L 192.734375 212.664062 L 189.570312 212.664062 L 189.570312 211.9375 L 192.734375 211.9375 " fill-opacity="1" fill-rule="nonzero"/><path fill="#ffffff" d="M 192.734375 213.515625 L 192.734375 214.242188 L 189.570312 214.242188 L 189.570312 213.515625 L 192.734375 213.515625 " fill-opacity="1" fill-rule="nonzero"/><path fill="#ffffff" d="M 192.734375 215.164062 L 192.734375 215.890625 L 189.570312 215.890625 L 189.570312 215.164062 L 192.734375 215.164062 " fill-opacity="1" fill-rule="nonzero"/><path fill="#ffffff" d="M 155.917969 165.484375 L 155.917969 166.207031 L 146.058594 166.207031 L 146.058594 165.484375 L 155.917969 165.484375 " fill-opacity="1" fill-rule="nonzero"/><path fill="#ffffff" d="M 155.917969 167.132812 L 155.917969 167.855469 L 146.058594 167.855469 L 146.058594 167.132812 L 155.917969 167.132812 " fill-opacity="1" fill-rule="nonzero"/><path fill="#ffffff" d="M 155.917969 168.867188 L 155.917969 169.589844 L 146.058594 169.589844 L 146.058594 168.867188 L 155.917969 168.867188 " fill-opacity="1" fill-rule="nonzero"/><path fill="#ffffff" d="M 155.917969 170.511719 L 155.917969 171.238281 L 146.058594 171.238281 L 146.058594 170.511719 L 155.917969 170.511719 " fill-opacity="1" fill-rule="nonzero"/><path fill="#ffffff" d="M 155.917969 172.25 L 155.917969 172.972656 L 146.058594 172.972656 L 146.058594 172.25 L 155.917969 172.25 " fill-opacity="1" fill-rule="nonzero"/><path fill="#ffffff" d="M 155.917969 173.894531 L 155.917969 174.617188 L 146.058594 174.617188 L 146.058594 173.894531 L 155.917969 173.894531 " fill-opacity="1" fill-rule="nonzero"/><path fill="#ffffff" d="M 155.917969 175.425781 L 155.917969 176.152344 L 146.058594 176.152344 L 146.058594 175.425781 L 155.917969 175.425781 " fill-opacity="1" fill-rule="nonzero"/><path fill="#ffffff" d="M 155.917969 177.074219 L 155.917969 177.796875 L 146.058594 177.796875 L 146.058594 177.074219 L 155.917969 177.074219 " fill-opacity="1" fill-rule="nonzero"/><path fill="#ffffff" d="M 155.917969 178.898438 L 155.917969 179.621094 L 146.058594 179.621094 L 146.058594 178.898438 L 155.917969 178.898438 " fill-opacity="1" fill-rule="nonzero"/><path fill="#ffffff" d="M 155.917969 180.546875 L 155.917969 181.269531 L 146.058594 181.269531 L 146.058594 180.546875 L 155.917969 180.546875 " fill-opacity="1" fill-rule="nonzero"/><path fill="#ffffff" d="M 155.917969 194.046875 L 155.917969 194.769531 L 146.058594 194.769531 L 146.058594 194.046875 L 155.917969 194.046875 " fill-opacity="1" fill-rule="nonzero"/><path fill="#ffffff" d="M 155.917969 192.398438 L 155.917969 193.125 L 146.058594 193.125 L 146.058594 192.398438 L 155.917969 192.398438 " fill-opacity="1" fill-rule="nonzero"/><path fill="#ffffff" d="M 155.917969 190.820312 L 155.917969 191.542969 L 146.058594 191.542969 L 146.058594 190.820312 L 155.917969 190.820312 " fill-opacity="1" fill-rule="nonzero"/><path fill="#ffffff" d="M 155.917969 189.171875 L 155.917969 189.898438 L 146.058594 189.898438 L 146.058594 189.171875 L 155.917969 189.171875 " fill-opacity="1" fill-rule="nonzero"/><path fill="#ffffff" d="M 155.917969 187.394531 L 155.917969 188.117188 L 146.058594 188.117188 L 146.058594 187.394531 L 155.917969 187.394531 " fill-opacity="1" fill-rule="nonzero"/><path fill="#ffffff" d="M 155.917969 185.75 L 155.917969 186.472656 L 146.058594 186.472656 L 146.058594 185.75 L 155.917969 185.75 " fill-opacity="1" fill-rule="nonzero"/><path fill="#ffffff" d="M 155.917969 183.96875 L 155.917969 184.695312 L 146.058594 184.695312 L 146.058594 183.96875 L 155.917969 183.96875 " fill-opacity="1" fill-rule="nonzero"/><path fill="#ffffff" d="M 155.917969 182.320312 L 155.917969 183.046875 L 146.058594 183.046875 L 146.058594 182.320312 L 155.917969 182.320312 " fill-opacity="1" fill-rule="nonzero"/><path fill="#ffffff" d="M 143.679688 182.023438 L 143.679688 183.671875 L 142.542969 183.671875 L 142.542969 182.023438 L 143.679688 182.023438 " fill-opacity="1" fill-rule="nonzero"/><path fill="#ffffff" d="M 139.929688 182.023438 L 139.929688 183.671875 L 138.792969 183.671875 L 138.792969 182.023438 L 139.929688 182.023438 " fill-opacity="1" fill-rule="nonzero"/><path fill="#ffffff" d="M 139.929688 184.597656 L 139.929688 186.246094 L 138.792969 186.246094 L 138.792969 184.597656 L 139.929688 184.597656 " fill-opacity="1" fill-rule="nonzero"/><path fill="#ffffff" d="M 143.679688 184.597656 L 143.679688 186.246094 L 142.542969 186.246094 L 142.542969 184.597656 L 143.679688 184.597656 " fill-opacity="1" fill-rule="nonzero"/><path fill="#ffffff" d="M 143.679688 187.21875 L 143.679688 188.863281 L 142.542969 188.863281 L 142.542969 187.21875 L 143.679688 187.21875 " fill-opacity="1" fill-rule="nonzero"/><path fill="#ffffff" d="M 139.929688 187.21875 L 139.929688 188.863281 L 138.792969 188.863281 L 138.792969 187.21875 L 139.929688 187.21875 " fill-opacity="1" fill-rule="nonzero"/><path fill="#ffffff" d="M 139.929688 189.792969 L 139.929688 191.4375 L 138.792969 191.4375 L 138.792969 189.792969 L 139.929688 189.792969 " fill-opacity="1" fill-rule="nonzero"/><path fill="#ffffff" d="M 143.679688 189.792969 L 143.679688 191.4375 L 142.542969 191.4375 L 142.542969 189.792969 L 143.679688 189.792969 " fill-opacity="1" fill-rule="nonzero"/><path fill="#ffffff" d="M 129.601562 159.535156 C 129.601562 160.167969 129.011719 160.675781 128.285156 160.675781 C 127.554688 160.675781 126.96875 160.167969 126.96875 159.535156 C 126.96875 158.90625 127.554688 158.394531 128.285156 158.394531 C 129.011719 158.394531 129.601562 158.90625 129.601562 159.535156 " fill-opacity="1" fill-rule="nonzero"/><path fill="#ffffff" d="M 129.601562 162.960938 C 129.601562 163.589844 129.011719 164.101562 128.285156 164.101562 C 127.554688 164.101562 126.96875 163.589844 126.96875 162.960938 C 126.96875 162.328125 127.554688 161.820312 128.285156 161.820312 C 129.011719 161.820312 129.601562 162.328125 129.601562 162.960938 " fill-opacity="1" fill-rule="nonzero"/><path fill="#ffffff" d="M 129.601562 166.386719 C 129.601562 167.015625 129.011719 167.527344 128.285156 167.527344 C 127.554688 167.527344 126.96875 167.015625 126.96875 166.386719 C 126.96875 165.757812 127.554688 165.242188 128.285156 165.242188 C 129.011719 165.242188 129.601562 165.757812 129.601562 166.386719 " fill-opacity="1" fill-rule="nonzero"/><path fill="#ffffff" d="M 129.601562 169.808594 C 129.601562 170.441406 129.011719 170.953125 128.285156 170.953125 C 127.554688 170.953125 126.96875 170.441406 126.96875 169.808594 C 126.96875 169.179688 127.554688 168.667969 128.285156 168.667969 C 129.011719 168.667969 129.601562 169.179688 129.601562 169.808594 " fill-opacity="1" fill-rule="nonzero"/><path fill="#ffffff" d="M 129.601562 173.238281 C 129.601562 173.867188 129.011719 174.378906 128.285156 174.378906 C 127.554688 174.378906 126.96875 173.867188 126.96875 173.238281 C 126.96875 172.605469 127.554688 172.09375 128.285156 172.09375 C 129.011719 172.09375 129.601562 172.605469 129.601562 173.238281 " fill-opacity="1" fill-rule="nonzero"/><path fill="#ffffff" d="M 129.601562 176.660156 C 129.601562 177.289062 129.011719 177.804688 128.285156 177.804688 C 127.554688 177.804688 126.96875 177.289062 126.96875 176.660156 C 126.96875 176.03125 127.554688 175.519531 128.285156 175.519531 C 129.011719 175.519531 129.601562 176.03125 129.601562 176.660156 " fill-opacity="1" fill-rule="nonzero"/><path fill="#ffffff" d="M 129.601562 180.492188 C 129.601562 181.125 129.011719 181.632812 128.285156 181.632812 C 127.554688 181.632812 126.96875 181.125 126.96875 180.492188 C 126.96875 179.859375 127.554688 179.351562 128.285156 179.351562 C 129.011719 179.351562 129.601562 179.859375 129.601562 180.492188 " fill-opacity="1" fill-rule="nonzero"/><path fill="#ffffff" d="M 129.601562 184.625 C 129.601562 185.253906 129.011719 185.769531 128.285156 185.769531 C 127.554688 185.769531 126.96875 185.253906 126.96875 184.625 C 126.96875 183.996094 127.554688 183.484375 128.285156 183.484375 C 129.011719 183.484375 129.601562 183.996094 129.601562 184.625 " fill-opacity="1" fill-rule="nonzero"/><path fill="#ffffff" d="M 129.601562 188.050781 C 129.601562 188.683594 129.011719 189.191406 128.285156 189.191406 C 127.554688 189.191406 126.96875 188.683594 126.96875 188.050781 C 126.96875 187.421875 127.554688 186.910156 128.285156 186.910156 C 129.011719 186.910156 129.601562 187.421875 129.601562 188.050781 " fill-opacity="1" fill-rule="nonzero"/><path fill="#ffffff" d="M 129.601562 191.476562 C 129.601562 192.105469 129.011719 192.617188 128.285156 192.617188 C 127.554688 192.617188 126.96875 192.105469 126.96875 191.476562 C 126.96875 190.84375 127.554688 190.335938 128.285156 190.335938 C 129.011719 190.335938 129.601562 190.84375 129.601562 191.476562 " fill-opacity="1" fill-rule="nonzero"/><path fill="#ffffff" d="M 129.601562 194.902344 C 129.601562 195.53125 129.011719 196.042969 128.285156 196.042969 C 127.554688 196.042969 126.96875 195.53125 126.96875 194.902344 C 126.96875 194.269531 127.554688 193.757812 128.285156 193.757812 C 129.011719 193.757812 129.601562 194.269531 129.601562 194.902344 " fill-opacity="1" fill-rule="nonzero"/><path fill="#ffffff" d="M 129.601562 201.753906 C 129.601562 201.949219 129.542969 202.136719 129.4375 202.300781 C 129.027344 201.746094 128.625 201.179688 128.238281 200.613281 L 128.285156 200.609375 C 129.011719 200.609375 129.601562 201.121094 129.601562 201.753906 " fill-opacity="1" fill-rule="nonzero"/><path fill="#ffffff" d="M 129.601562 198.328125 C 129.601562 198.957031 129.011719 199.46875 128.285156 199.46875 C 127.554688 199.46875 126.96875 198.957031 126.96875 198.328125 C 126.96875 197.695312 127.554688 197.183594 128.285156 197.183594 C 129.011719 197.183594 129.601562 197.695312 129.601562 198.328125 " fill-opacity="1" fill-rule="nonzero"/><g clip-path="url(#5cf27bee6e)"><path fill="#ffffff" d="M 122.761719 163.484375 L 122.761719 189.839844 C 122.65625 189.535156 122.554688 189.234375 122.457031 188.929688 C 122.378906 188.691406 122.304688 188.449219 122.230469 188.207031 C 122.128906 187.871094 122.03125 187.535156 121.941406 187.199219 C 121.875 186.957031 121.808594 186.714844 121.746094 186.472656 C 121.667969 186.167969 121.59375 185.859375 121.519531 185.550781 C 121.464844 185.308594 121.414062 185.066406 121.363281 184.824219 C 121.285156 184.472656 121.21875 184.117188 121.152344 183.757812 C 121.109375 183.515625 121.066406 183.277344 121.027344 183.035156 C 120.976562 182.726562 120.929688 182.417969 120.886719 182.113281 C 120.855469 181.871094 120.824219 181.628906 120.792969 181.386719 C 120.757812 181.105469 120.726562 180.820312 120.699219 180.535156 C 120.675781 180.292969 120.652344 180.050781 120.632812 179.808594 C 120.609375 179.503906 120.585938 179.195312 120.570312 178.886719 C 120.554688 178.644531 120.542969 178.40625 120.535156 178.160156 C 120.523438 177.8125 120.515625 177.460938 120.511719 177.109375 C 120.511719 176.957031 120.507812 176.808594 120.507812 176.660156 C 120.507812 176.570312 120.511719 176.476562 120.511719 176.382812 C 120.511719 176.074219 120.519531 175.769531 120.527344 175.460938 C 120.535156 175.21875 120.542969 174.980469 120.554688 174.738281 C 120.574219 174.386719 120.59375 174.035156 120.621094 173.683594 C 120.640625 173.441406 120.660156 173.199219 120.683594 172.957031 C 120.710938 172.652344 120.746094 172.34375 120.78125 172.035156 C 120.808594 171.796875 120.839844 171.554688 120.875 171.3125 C 120.921875 170.960938 120.972656 170.609375 121.03125 170.257812 C 121.074219 170.015625 121.113281 169.773438 121.15625 169.535156 C 121.214844 169.226562 121.273438 168.917969 121.339844 168.609375 C 121.390625 168.367188 121.441406 168.128906 121.496094 167.886719 C 121.582031 167.519531 121.671875 167.152344 121.765625 166.785156 C 121.828125 166.542969 121.890625 166.300781 121.957031 166.0625 C 122.042969 165.753906 122.132812 165.445312 122.222656 165.136719 C 122.296875 164.898438 122.371094 164.65625 122.449219 164.414062 C 122.535156 164.144531 122.625 163.875 122.71875 163.605469 C 122.734375 163.566406 122.746094 163.523438 122.761719 163.484375 " fill-opacity="1" fill-rule="nonzero"/></g><path fill="#ffffff" d="M 161.933594 159.726562 C 161.933594 160.253906 161.441406 160.683594 160.832031 160.683594 C 160.226562 160.683594 159.734375 160.253906 159.734375 159.726562 C 159.734375 159.199219 160.226562 158.773438 160.832031 158.773438 C 161.441406 158.773438 161.933594 159.199219 161.933594 159.726562 " fill-opacity="1" fill-rule="nonzero"/><path fill="#ffffff" d="M 161.933594 162.585938 C 161.933594 163.113281 161.441406 163.542969 160.832031 163.542969 C 160.226562 163.542969 159.734375 163.113281 159.734375 162.585938 C 159.734375 162.0625 160.226562 161.636719 160.832031 161.636719 C 161.441406 161.636719 161.933594 162.0625 161.933594 162.585938 " fill-opacity="1" fill-rule="nonzero"/><path fill="#ffffff" d="M 161.933594 165.449219 C 161.933594 165.976562 161.441406 166.402344 160.832031 166.402344 C 160.226562 166.402344 159.734375 165.976562 159.734375 165.449219 C 159.734375 164.921875 160.226562 164.496094 160.832031 164.496094 C 161.441406 164.496094 161.933594 164.921875 161.933594 165.449219 " fill-opacity="1" fill-rule="nonzero"/><path fill="#ffffff" d="M 161.933594 168.308594 C 161.933594 168.835938 161.441406 169.261719 160.832031 169.261719 C 160.226562 169.261719 159.734375 168.835938 159.734375 168.308594 C 159.734375 167.78125 160.226562 167.355469 160.832031 167.355469 C 161.441406 167.355469 161.933594 167.78125 161.933594 168.308594 " fill-opacity="1" fill-rule="nonzero"/><path fill="#ffffff" d="M 161.933594 171.171875 C 161.933594 171.695312 161.441406 172.125 160.832031 172.125 C 160.226562 172.125 159.734375 171.695312 159.734375 171.171875 C 159.734375 170.644531 160.226562 170.21875 160.832031 170.21875 C 161.441406 170.21875 161.933594 170.644531 161.933594 171.171875 " fill-opacity="1" fill-rule="nonzero"/><path fill="#ffffff" d="M 161.933594 174.03125 C 161.933594 174.558594 161.441406 174.984375 160.832031 174.984375 C 160.226562 174.984375 159.734375 174.558594 159.734375 174.03125 C 159.734375 173.503906 160.226562 173.078125 160.832031 173.078125 C 161.441406 173.078125 161.933594 173.503906 161.933594 174.03125 " fill-opacity="1" fill-rule="nonzero"/><path fill="#ffffff" d="M 161.933594 177.230469 C 161.933594 177.757812 161.441406 178.183594 160.832031 178.183594 C 160.226562 178.183594 159.734375 177.757812 159.734375 177.230469 C 159.734375 176.707031 160.226562 176.277344 160.832031 176.277344 C 161.441406 176.277344 161.933594 176.707031 161.933594 177.230469 " fill-opacity="1" fill-rule="nonzero"/><path fill="#ffffff" d="M 161.933594 180.800781 C 161.933594 181.328125 161.441406 181.753906 160.832031 181.753906 C 160.226562 181.753906 159.734375 181.328125 159.734375 180.800781 C 159.734375 180.273438 160.226562 179.847656 160.832031 179.847656 C 161.441406 179.847656 161.933594 180.273438 161.933594 180.800781 " fill-opacity="1" fill-rule="nonzero"/><path fill="#ffffff" d="M 161.933594 183.660156 C 161.933594 184.1875 161.441406 184.613281 160.832031 184.613281 C 160.226562 184.613281 159.734375 184.1875 159.734375 183.660156 C 159.734375 183.132812 160.226562 182.707031 160.832031 182.707031 C 161.441406 182.707031 161.933594 183.132812 161.933594 183.660156 " fill-opacity="1" fill-rule="nonzero"/><path fill="#ffffff" d="M 161.933594 186.523438 C 161.933594 187.046875 161.441406 187.476562 160.832031 187.476562 C 160.226562 187.476562 159.734375 187.046875 159.734375 186.523438 C 159.734375 185.996094 160.226562 185.566406 160.832031 185.566406 C 161.441406 185.566406 161.933594 185.996094 161.933594 186.523438 " fill-opacity="1" fill-rule="nonzero"/><path fill="#ffffff" d="M 161.933594 189.382812 C 161.933594 189.910156 161.441406 190.335938 160.832031 190.335938 C 160.226562 190.335938 159.734375 189.910156 159.734375 189.382812 C 159.734375 188.855469 160.226562 188.429688 160.832031 188.429688 C 161.441406 188.429688 161.933594 188.855469 161.933594 189.382812 " fill-opacity="1" fill-rule="nonzero"/><path fill="#ffffff" d="M 161.933594 192.242188 C 161.933594 192.769531 161.441406 193.199219 160.832031 193.199219 C 160.226562 193.199219 159.734375 192.769531 159.734375 192.242188 C 159.734375 191.714844 160.226562 191.289062 160.832031 191.289062 C 161.441406 191.289062 161.933594 191.714844 161.933594 192.242188 " fill-opacity="1" fill-rule="nonzero"/><path fill="#ffffff" d="M 161.933594 195.101562 C 161.933594 195.628906 161.441406 196.058594 160.832031 196.058594 C 160.226562 196.058594 159.734375 195.628906 159.734375 195.101562 C 159.734375 194.578125 160.226562 194.148438 160.832031 194.148438 C 161.441406 194.148438 161.933594 194.578125 161.933594 195.101562 " fill-opacity="1" fill-rule="nonzero"/><path fill="#ffffff" d="M 161.933594 198.304688 C 161.933594 198.832031 161.441406 199.257812 160.832031 199.257812 C 160.226562 199.257812 159.734375 198.832031 159.734375 198.304688 C 159.734375 197.777344 160.226562 197.351562 160.832031 197.351562 C 161.441406 197.351562 161.933594 197.777344 161.933594 198.304688 " fill-opacity="1" fill-rule="nonzero"/><path fill="#ffffff" d="M 175.007812 166.832031 C 175.007812 167.464844 174.417969 167.972656 173.6875 167.972656 C 172.964844 167.972656 172.375 167.464844 172.375 166.832031 C 172.375 166.203125 172.964844 165.691406 173.6875 165.691406 C 174.417969 165.691406 175.007812 166.203125 175.007812 166.832031 " fill-opacity="1" fill-rule="nonzero"/><path fill="#ffffff" d="M 175.007812 170.257812 C 175.007812 170.886719 174.417969 171.398438 173.6875 171.398438 C 172.964844 171.398438 172.375 170.886719 172.375 170.257812 C 172.375 169.625 172.964844 169.117188 173.6875 169.117188 C 174.417969 169.117188 175.007812 169.625 175.007812 170.257812 " fill-opacity="1" fill-rule="nonzero"/><path fill="#ffffff" d="M 175.007812 173.683594 C 175.007812 174.3125 174.417969 174.824219 173.6875 174.824219 C 172.964844 174.824219 172.375 174.3125 172.375 173.683594 C 172.375 173.054688 172.964844 172.542969 173.6875 172.542969 C 174.417969 172.542969 175.007812 173.054688 175.007812 173.683594 " fill-opacity="1" fill-rule="nonzero"/><path fill="#ffffff" d="M 175.007812 177.109375 C 175.007812 177.738281 174.417969 178.25 173.6875 178.25 C 172.964844 178.25 172.375 177.738281 172.375 177.109375 C 172.375 176.476562 172.964844 175.96875 173.6875 175.96875 C 174.417969 175.96875 175.007812 176.476562 175.007812 177.109375 " fill-opacity="1" fill-rule="nonzero"/><path fill="#ffffff" d="M 175.007812 180.535156 C 175.007812 181.164062 174.417969 181.675781 173.6875 181.675781 C 172.964844 181.675781 172.375 181.164062 172.375 180.535156 C 172.375 179.902344 172.964844 179.390625 173.6875 179.390625 C 174.417969 179.390625 175.007812 179.902344 175.007812 180.535156 " fill-opacity="1" fill-rule="nonzero"/><path fill="#ffffff" d="M 175.007812 183.957031 C 175.007812 184.589844 174.417969 185.101562 173.6875 185.101562 C 172.964844 185.101562 172.375 184.589844 172.375 183.957031 C 172.375 183.328125 172.964844 182.816406 173.6875 182.816406 C 174.417969 182.816406 175.007812 183.328125 175.007812 183.957031 " fill-opacity="1" fill-rule="nonzero"/><path fill="#ffffff" d="M 175.007812 187.789062 C 175.007812 188.421875 174.417969 188.933594 173.6875 188.933594 C 172.964844 188.933594 172.375 188.421875 172.375 187.789062 C 172.375 187.160156 172.964844 186.648438 173.6875 186.648438 C 174.417969 186.648438 175.007812 187.160156 175.007812 187.789062 " fill-opacity="1" fill-rule="nonzero"/><g clip-path="url(#89b01bbf56)"><path fill="#ffffff" d="M 270.074219 194.636719 L 270.074219 217.507812 C 269.703125 217.757812 269.328125 218.007812 268.949219 218.253906 L 268.554688 218.253906 L 268.554688 195.222656 L 265.277344 194.894531 C 264.894531 194.855469 264.605469 194.574219 264.605469 194.238281 L 264.605469 194.480469 L 259.660156 194.480469 L 259.660156 193.757812 L 264.605469 193.757812 L 264.605469 192.832031 L 259.660156 192.832031 L 259.660156 192.109375 L 264.605469 192.109375 L 264.605469 191.199219 L 259.660156 191.199219 L 259.660156 190.476562 L 264.605469 190.476562 L 264.605469 189.550781 L 259.660156 189.550781 L 259.660156 188.828125 L 264.605469 188.828125 L 264.605469 187.851562 L 259.660156 187.851562 L 259.660156 187.128906 L 264.605469 187.128906 L 264.605469 186.207031 L 259.660156 186.207031 L 259.660156 185.480469 L 264.605469 185.480469 L 264.605469 184.507812 L 259.660156 184.507812 L 259.660156 183.78125 L 264.605469 183.78125 L 264.605469 182.859375 L 259.660156 182.859375 L 259.660156 182.136719 L 264.605469 182.136719 L 264.605469 174.234375 L 258.523438 174.234375 L 258.523438 178.695312 C 258.523438 179.058594 258.179688 179.355469 257.761719 179.355469 L 246.511719 179.355469 C 246.09375 179.355469 245.75 179.058594 245.75 178.695312 L 245.75 168.8125 L 241.953125 168.8125 C 241.53125 168.8125 241.191406 168.519531 241.191406 168.15625 L 241.191406 163.542969 L 232.679688 163.542969 L 232.679688 178.695312 C 232.679688 179.058594 232.335938 179.355469 231.914062 179.355469 L 226.445312 179.355469 C 226.023438 179.355469 225.683594 179.058594 225.683594 178.695312 L 225.683594 153.269531 L 221.882812 153.269531 C 221.464844 153.269531 221.125 152.976562 221.125 152.609375 L 221.125 144.3125 L 218.539062 144.3125 C 218.117188 144.3125 217.78125 144.015625 217.78125 143.652344 L 217.78125 133.507812 L 208.351562 133.507812 L 208.351562 137.066406 C 208.351562 137.429688 208.011719 137.722656 207.59375 137.722656 L 201.054688 137.722656 L 201.054688 143.519531 L 205.160156 143.519531 C 205.363281 143.519531 205.558594 143.589844 205.699219 143.714844 C 205.84375 143.839844 205.925781 144.011719 205.921875 144.1875 L 205.617188 168.691406 C 205.613281 168.863281 205.53125 169.03125 205.386719 169.152344 C 205.242188 169.273438 205.054688 169.339844 204.847656 169.34375 L 198.765625 169.273438 C 198.347656 169.269531 198.015625 168.976562 198.015625 168.617188 L 198.015625 161.269531 L 195.515625 160.617188 C 195.195312 160.535156 194.972656 160.277344 194.972656 159.988281 L 194.972656 154.488281 L 191.960938 154.050781 C 191.59375 154 191.328125 153.722656 191.328125 153.402344 L 191.328125 146.628906 L 188.453125 146.683594 C 188.246094 146.6875 188.050781 146.621094 187.90625 146.492188 C 187.757812 146.371094 187.675781 146.199219 187.675781 146.023438 L 187.675781 133.507812 L 182.507812 133.507812 L 182.507812 145.761719 C 182.507812 146.125 182.167969 146.417969 181.75 146.417969 L 178.554688 146.417969 L 178.554688 153.730469 C 178.554688 154.074219 178.25 154.355469 177.859375 154.386719 L 173.996094 154.664062 L 173.996094 160.25 C 173.996094 160.480469 173.859375 160.691406 173.632812 160.8125 L 170.042969 162.726562 L 170.042969 200.300781 C 170.042969 200.480469 169.957031 200.652344 169.804688 200.777344 C 169.652344 200.902344 169.449219 200.964844 169.238281 200.960938 L 163.765625 200.695312 C 163.367188 200.675781 163.046875 200.386719 163.046875 200.035156 L 163.046875 156.9375 L 158.488281 156.804688 L 158.488281 163.148438 C 158.488281 163.507812 158.160156 163.800781 157.746094 163.808594 L 145.109375 164.058594 L 145.109375 178.828125 C 145.109375 179.191406 144.769531 179.484375 144.351562 179.484375 L 138.269531 179.484375 C 137.847656 179.484375 137.507812 179.191406 137.507812 178.828125 L 137.507812 174.234375 L 132.183594 174.234375 C 131.765625 174.234375 131.425781 173.9375 131.425781 173.574219 L 131.425781 155.113281 L 126.703125 155.113281 C 126.96875 154.671875 127.242188 154.234375 127.523438 153.796875 L 132.183594 153.796875 C 132.605469 153.796875 132.949219 154.089844 132.949219 154.453125 L 132.949219 172.917969 L 138.269531 172.917969 C 138.6875 172.917969 139.027344 173.210938 139.027344 173.574219 L 139.027344 178.167969 L 143.589844 178.167969 L 143.589844 163.414062 C 143.589844 163.054688 143.917969 162.761719 144.332031 162.753906 L 156.96875 162.507812 L 156.96875 156.121094 C 156.96875 155.945312 157.050781 155.773438 157.199219 155.652344 C 157.347656 155.527344 157.550781 155.457031 157.75 155.464844 L 163.832031 155.640625 C 164.242188 155.652344 164.570312 155.941406 164.570312 156.296875 L 164.570312 199.410156 L 168.523438 199.605469 L 168.523438 162.359375 C 168.523438 162.128906 168.65625 161.917969 168.882812 161.796875 L 172.472656 159.882812 L 172.472656 154.058594 C 172.472656 153.71875 172.777344 153.433594 173.171875 153.40625 L 177.035156 153.125 L 177.035156 145.761719 C 177.035156 145.398438 177.375 145.101562 177.792969 145.101562 L 180.988281 145.101562 L 180.988281 132.851562 C 180.988281 132.488281 181.328125 132.191406 181.75 132.191406 L 188.4375 132.191406 C 188.855469 132.191406 189.199219 132.488281 189.199219 132.851562 L 189.199219 145.351562 L 192.070312 145.300781 C 192.273438 145.292969 192.472656 145.363281 192.617188 145.484375 C 192.761719 145.609375 192.84375 145.78125 192.84375 145.957031 L 192.84375 152.84375 L 195.859375 153.277344 C 196.226562 153.332031 196.496094 153.605469 196.496094 153.929688 L 196.496094 159.5 L 198.992188 160.148438 C 199.316406 160.230469 199.535156 160.488281 199.535156 160.78125 L 199.535156 167.964844 L 204.105469 168.015625 L 204.390625 144.839844 L 200.296875 144.839844 C 199.875 144.839844 199.535156 144.542969 199.535156 144.179688 L 199.535156 137.066406 C 199.535156 136.703125 199.875 136.40625 200.296875 136.40625 L 206.832031 136.40625 L 206.832031 132.851562 C 206.832031 132.488281 207.171875 132.191406 207.59375 132.191406 L 218.539062 132.191406 C 218.957031 132.191406 219.296875 132.488281 219.296875 132.851562 L 219.296875 142.992188 L 221.882812 142.992188 C 222.304688 142.992188 222.644531 143.289062 222.644531 143.652344 L 222.644531 151.953125 L 226.445312 151.953125 C 226.863281 151.953125 227.207031 152.246094 227.207031 152.609375 L 227.207031 178.035156 L 231.15625 178.035156 L 231.15625 162.886719 C 231.15625 162.523438 231.496094 162.226562 231.914062 162.226562 L 241.953125 162.226562 C 242.371094 162.226562 242.710938 162.523438 242.710938 162.886719 L 242.710938 167.496094 L 246.511719 167.496094 C 246.933594 167.496094 247.273438 167.792969 247.273438 168.15625 L 247.273438 178.035156 L 257.003906 178.035156 L 257.003906 173.574219 C 257.003906 173.210938 257.34375 172.917969 257.761719 172.917969 L 265.363281 172.917969 C 265.785156 172.917969 266.121094 173.210938 266.121094 173.574219 L 266.121094 193.652344 L 269.40625 193.984375 C 269.789062 194.019531 270.074219 194.304688 270.074219 194.636719 " fill-opacity="1" fill-rule="nonzero"/></g><path fill="#ffffff" d="M 192.734375 186.605469 L 192.734375 187.328125 L 176.121094 187.328125 L 176.121094 186.605469 L 192.734375 186.605469 " fill-opacity="1" fill-rule="nonzero"/><g fill="#ffffff" fill-opacity="1"><g transform="translate(200.203905, 221.257287)"><g><path d="M 3.9375 0.109375 C 3.457031 0.109375 3.023438 0.046875 2.640625 -0.078125 C 2.265625 -0.210938 1.9375 -0.394531 1.65625 -0.625 C 1.382812 -0.863281 1.15625 -1.140625 0.96875 -1.453125 C 0.78125 -1.765625 0.640625 -2.101562 0.546875 -2.46875 C 0.460938 -2.84375 0.421875 -3.226562 0.421875 -3.625 C 0.421875 -4.019531 0.460938 -4.398438 0.546875 -4.765625 C 0.640625 -5.140625 0.78125 -5.484375 0.96875 -5.796875 C 1.15625 -6.117188 1.382812 -6.394531 1.65625 -6.625 C 1.9375 -6.863281 2.265625 -7.046875 2.640625 -7.171875 C 3.015625 -7.304688 3.441406 -7.375 3.921875 -7.375 C 4.398438 -7.375 4.84375 -7.289062 5.25 -7.125 C 5.65625 -6.96875 6.015625 -6.734375 6.328125 -6.421875 C 6.640625 -6.117188 6.894531 -5.738281 7.09375 -5.28125 L 5.875 -4.8125 C 5.789062 -5.125 5.648438 -5.375 5.453125 -5.5625 C 5.265625 -5.757812 5.039062 -5.898438 4.78125 -5.984375 C 4.519531 -6.078125 4.226562 -6.125 3.90625 -6.125 C 3.53125 -6.125 3.203125 -6.0625 2.921875 -5.9375 C 2.640625 -5.8125 2.410156 -5.632812 2.234375 -5.40625 C 2.054688 -5.1875 1.925781 -4.925781 1.84375 -4.625 C 1.757812 -4.332031 1.71875 -4.019531 1.71875 -3.6875 C 1.71875 -3.320312 1.757812 -2.984375 1.84375 -2.671875 C 1.925781 -2.367188 2.054688 -2.097656 2.234375 -1.859375 C 2.421875 -1.628906 2.648438 -1.453125 2.921875 -1.328125 C 3.203125 -1.203125 3.539062 -1.140625 3.9375 -1.140625 C 4.40625 -1.140625 4.800781 -1.238281 5.125 -1.4375 C 5.445312 -1.644531 5.707031 -1.992188 5.90625 -2.484375 L 7.109375 -1.984375 C 6.910156 -1.535156 6.65625 -1.15625 6.34375 -0.84375 C 6.03125 -0.53125 5.671875 -0.289062 5.265625 -0.125 C 4.859375 0.03125 4.414062 0.109375 3.9375 0.109375 Z M 3.9375 0.109375 "/></g></g><g transform="translate(207.552763, 221.257287)"><g><path d="M 0.71875 -6.09375 L 0.71875 -7.25 L 2.015625 -7.25 L 2.015625 -6.09375 Z M 0.75 0 L 0.75 -5.125 L 1.984375 -5.125 L 1.984375 0 Z M 0.75 0 "/></g></g><g transform="translate(210.282925, 221.257287)"><g><path d="M 2.046875 0 L -0.046875 -5.125 L 1.328125 -5.125 L 2.5625 -1.625 L 3.8125 -5.125 L 5.171875 -5.125 L 3.078125 0 Z M 2.046875 0 "/></g></g><g transform="translate(215.409677, 221.257287)"><g><path d="M 0.71875 -6.09375 L 0.71875 -7.25 L 2.015625 -7.25 L 2.015625 -6.09375 Z M 0.75 0 L 0.75 -5.125 L 1.984375 -5.125 L 1.984375 0 Z M 0.75 0 "/></g></g><g transform="translate(218.13984, 221.257287)"><g><path d="M 3.9375 0.109375 C 3.457031 0.109375 3.023438 0.046875 2.640625 -0.078125 C 2.265625 -0.210938 1.9375 -0.394531 1.65625 -0.625 C 1.382812 -0.863281 1.15625 -1.140625 0.96875 -1.453125 C 0.78125 -1.765625 0.640625 -2.101562 0.546875 -2.46875 C 0.460938 -2.84375 0.421875 -3.226562 0.421875 -3.625 C 0.421875 -4.019531 0.460938 -4.398438 0.546875 -4.765625 C 0.640625 -5.140625 0.78125 -5.484375 0.96875 -5.796875 C 1.15625 -6.117188 1.382812 -6.394531 1.65625 -6.625 C 1.9375 -6.863281 2.265625 -7.046875 2.640625 -7.171875 C 3.015625 -7.304688 3.441406 -7.375 3.921875 -7.375 C 4.398438 -7.375 4.84375 -7.289062 5.25 -7.125 C 5.65625 -6.96875 6.015625 -6.734375 6.328125 -6.421875 C 6.640625 -6.117188 6.894531 -5.738281 7.09375 -5.28125 L 5.875 -4.8125 C 5.789062 -5.125 5.648438 -5.375 5.453125 -5.5625 C 5.265625 -5.757812 5.039062 -5.898438 4.78125 -5.984375 C 4.519531 -6.078125 4.226562 -6.125 3.90625 -6.125 C 3.53125 -6.125 3.203125 -6.0625 2.921875 -5.9375 C 2.640625 -5.8125 2.410156 -5.632812 2.234375 -5.40625 C 2.054688 -5.1875 1.925781 -4.925781 1.84375 -4.625 C 1.757812 -4.332031 1.71875 -4.019531 1.71875 -3.6875 C 1.71875 -3.320312 1.757812 -2.984375 1.84375 -2.671875 C 1.925781 -2.367188 2.054688 -2.097656 2.234375 -1.859375 C 2.421875 -1.628906 2.648438 -1.453125 2.921875 -1.328125 C 3.203125 -1.203125 3.539062 -1.140625 3.9375 -1.140625 C 4.40625 -1.140625 4.800781 -1.238281 5.125 -1.4375 C 5.445312 -1.644531 5.707031 -1.992188 5.90625 -2.484375 L 7.109375 -1.984375 C 6.910156 -1.535156 6.65625 -1.15625 6.34375 -0.84375 C 6.03125 -0.53125 5.671875 -0.289062 5.265625 -0.125 C 4.859375 0.03125 4.414062 0.109375 3.9375 0.109375 Z M 3.9375 0.109375 "/></g></g><g transform="translate(225.488698, 221.257287)"><g><path d="M 2.890625 0.109375 C 2.492188 0.109375 2.132812 0.0351562 1.8125 -0.109375 C 1.488281 -0.253906 1.210938 -0.445312 0.984375 -0.6875 C 0.753906 -0.9375 0.578125 -1.222656 0.453125 -1.546875 C 0.328125 -1.867188 0.265625 -2.210938 0.265625 -2.578125 C 0.265625 -2.941406 0.328125 -3.28125 0.453125 -3.59375 C 0.578125 -3.914062 0.753906 -4.195312 0.984375 -4.4375 C 1.210938 -4.6875 1.488281 -4.878906 1.8125 -5.015625 C 2.132812 -5.160156 2.492188 -5.234375 2.890625 -5.234375 C 3.285156 -5.234375 3.644531 -5.160156 3.96875 -5.015625 C 4.289062 -4.878906 4.566406 -4.6875 4.796875 -4.4375 C 5.023438 -4.195312 5.203125 -3.914062 5.328125 -3.59375 C 5.453125 -3.28125 5.515625 -2.941406 5.515625 -2.578125 C 5.515625 -2.210938 5.453125 -1.867188 5.328125 -1.546875 C 5.203125 -1.222656 5.023438 -0.9375 4.796875 -0.6875 C 4.566406 -0.445312 4.289062 -0.253906 3.96875 -0.109375 C 3.644531 0.0351562 3.285156 0.109375 2.890625 0.109375 Z M 2.890625 -0.96875 C 3.128906 -0.96875 3.332031 -1.007812 3.5 -1.09375 C 3.664062 -1.1875 3.800781 -1.304688 3.90625 -1.453125 C 4.007812 -1.609375 4.085938 -1.78125 4.140625 -1.96875 C 4.191406 -2.164062 4.21875 -2.367188 4.21875 -2.578125 C 4.21875 -2.785156 4.191406 -2.984375 4.140625 -3.171875 C 4.085938 -3.359375 4.007812 -3.523438 3.90625 -3.671875 C 3.800781 -3.828125 3.664062 -3.945312 3.5 -4.03125 C 3.332031 -4.113281 3.128906 -4.15625 2.890625 -4.15625 C 2.578125 -4.15625 2.320312 -4.082031 2.125 -3.9375 C 1.925781 -3.789062 1.78125 -3.597656 1.6875 -3.359375 C 1.601562 -3.117188 1.5625 -2.859375 1.5625 -2.578125 C 1.5625 -2.367188 1.585938 -2.164062 1.640625 -1.96875 C 1.691406 -1.78125 1.769531 -1.609375 1.875 -1.453125 C 1.976562 -1.304688 2.113281 -1.1875 2.28125 -1.09375 C 2.445312 -1.007812 2.648438 -0.96875 2.890625 -0.96875 Z M 2.890625 -0.96875 "/></g></g><g transform="translate(231.277463, 221.257287)"><g><path d="M 0.75 0 L 0.75 -5.125 L 1.984375 -5.125 L 1.984375 -4.53125 C 2.117188 -4.695312 2.269531 -4.832031 2.4375 -4.9375 C 2.613281 -5.039062 2.789062 -5.113281 2.96875 -5.15625 C 3.15625 -5.207031 3.332031 -5.234375 3.5 -5.234375 C 3.832031 -5.234375 4.117188 -5.171875 4.359375 -5.046875 C 4.597656 -4.929688 4.789062 -4.769531 4.9375 -4.5625 C 5.082031 -4.351562 5.1875 -4.117188 5.25 -3.859375 C 5.320312 -3.609375 5.359375 -3.347656 5.359375 -3.078125 L 5.359375 0 L 4.125 0 L 4.125 -2.921875 C 4.125 -3.148438 4.085938 -3.347656 4.015625 -3.515625 C 3.941406 -3.691406 3.832031 -3.828125 3.6875 -3.921875 C 3.539062 -4.023438 3.359375 -4.078125 3.140625 -4.078125 C 2.785156 -4.078125 2.503906 -3.976562 2.296875 -3.78125 C 2.085938 -3.582031 1.984375 -3.257812 1.984375 -2.8125 L 1.984375 0 Z M 0.75 0 "/></g></g><g transform="translate(237.23558, 221.257287)"><g><path d="M 0.75 0 L 0.75 -5.125 L 1.984375 -5.125 L 1.984375 -4.53125 C 2.117188 -4.695312 2.269531 -4.832031 2.4375 -4.9375 C 2.613281 -5.039062 2.789062 -5.113281 2.96875 -5.15625 C 3.15625 -5.207031 3.332031 -5.234375 3.5 -5.234375 C 3.832031 -5.234375 4.117188 -5.171875 4.359375 -5.046875 C 4.597656 -4.929688 4.789062 -4.769531 4.9375 -4.5625 C 5.082031 -4.351562 5.1875 -4.117188 5.25 -3.859375 C 5.320312 -3.609375 5.359375 -3.347656 5.359375 -3.078125 L 5.359375 0 L 4.125 0 L 4.125 -2.921875 C 4.125 -3.148438 4.085938 -3.347656 4.015625 -3.515625 C 3.941406 -3.691406 3.832031 -3.828125 3.6875 -3.921875 C 3.539062 -4.023438 3.359375 -4.078125 3.140625 -4.078125 C 2.785156 -4.078125 2.503906 -3.976562 2.296875 -3.78125 C 2.085938 -3.582031 1.984375 -3.257812 1.984375 -2.8125 L 1.984375 0 Z M 0.75 0 "/></g></g><g transform="translate(243.193698, 221.257287)"><g><path d="M 2.875 0.109375 C 2.4375 0.109375 2.054688 0.0351562 1.734375 -0.109375 C 1.410156 -0.253906 1.140625 -0.453125 0.921875 -0.703125 C 0.703125 -0.953125 0.539062 -1.234375 0.4375 -1.546875 C 0.332031 -1.867188 0.28125 -2.203125 0.28125 -2.546875 C 0.28125 -2.878906 0.328125 -3.203125 0.421875 -3.515625 C 0.523438 -3.835938 0.679688 -4.128906 0.890625 -4.390625 C 1.097656 -4.648438 1.359375 -4.851562 1.671875 -5 C 1.984375 -5.15625 2.359375 -5.234375 2.796875 -5.234375 C 3.160156 -5.234375 3.472656 -5.179688 3.734375 -5.078125 C 4.003906 -4.972656 4.226562 -4.832031 4.40625 -4.65625 C 4.59375 -4.476562 4.742188 -4.273438 4.859375 -4.046875 C 4.972656 -3.828125 5.050781 -3.597656 5.09375 -3.359375 C 5.144531 -3.117188 5.171875 -2.882812 5.171875 -2.65625 C 5.171875 -2.539062 5.164062 -2.4375 5.15625 -2.34375 C 5.15625 -2.257812 5.144531 -2.195312 5.125 -2.15625 L 1.609375 -2.15625 C 1.640625 -1.9375 1.703125 -1.738281 1.796875 -1.5625 C 1.898438 -1.394531 2.039062 -1.265625 2.21875 -1.171875 C 2.394531 -1.078125 2.617188 -1.03125 2.890625 -1.03125 C 3.117188 -1.03125 3.335938 -1.070312 3.546875 -1.15625 C 3.753906 -1.238281 3.945312 -1.378906 4.125 -1.578125 L 4.984375 -0.828125 C 4.703125 -0.515625 4.390625 -0.28125 4.046875 -0.125 C 3.703125 0.03125 3.3125 0.109375 2.875 0.109375 Z M 1.609375 -3.0625 L 3.9375 -3.0625 C 3.894531 -3.425781 3.773438 -3.703125 3.578125 -3.890625 C 3.378906 -4.085938 3.113281 -4.1875 2.78125 -4.1875 C 2.539062 -4.1875 2.335938 -4.132812 2.171875 -4.03125 C 2.015625 -3.9375 1.890625 -3.804688 1.796875 -3.640625 C 1.710938 -3.472656 1.648438 -3.28125 1.609375 -3.0625 Z M 1.609375 -3.0625 "/></g></g><g transform="translate(248.669418, 221.257287)"><g><path d="M 2.78125 0.109375 C 2.363281 0.109375 2 0.0351562 1.6875 -0.109375 C 1.375 -0.265625 1.113281 -0.46875 0.90625 -0.71875 C 0.695312 -0.96875 0.539062 -1.25 0.4375 -1.5625 C 0.34375 -1.882812 0.296875 -2.21875 0.296875 -2.5625 C 0.296875 -2.894531 0.34375 -3.21875 0.4375 -3.53125 C 0.539062 -3.851562 0.691406 -4.140625 0.890625 -4.390625 C 1.097656 -4.648438 1.359375 -4.851562 1.671875 -5 C 1.984375 -5.15625 2.347656 -5.234375 2.765625 -5.234375 C 3.273438 -5.234375 3.722656 -5.109375 4.109375 -4.859375 C 4.492188 -4.609375 4.785156 -4.226562 4.984375 -3.71875 L 3.796875 -3.265625 C 3.734375 -3.503906 3.609375 -3.703125 3.421875 -3.859375 C 3.242188 -4.023438 3.023438 -4.109375 2.765625 -4.109375 C 2.546875 -4.109375 2.359375 -4.0625 2.203125 -3.96875 C 2.054688 -3.882812 1.9375 -3.765625 1.84375 -3.609375 C 1.75 -3.460938 1.675781 -3.296875 1.625 -3.109375 C 1.582031 -2.929688 1.5625 -2.75 1.5625 -2.5625 C 1.5625 -2.363281 1.582031 -2.171875 1.625 -1.984375 C 1.675781 -1.804688 1.75 -1.644531 1.84375 -1.5 C 1.9375 -1.351562 2.054688 -1.238281 2.203125 -1.15625 C 2.359375 -1.070312 2.546875 -1.03125 2.765625 -1.03125 C 3.015625 -1.03125 3.234375 -1.101562 3.421875 -1.25 C 3.609375 -1.40625 3.734375 -1.601562 3.796875 -1.84375 L 4.9375 -1.421875 C 4.820312 -1.097656 4.660156 -0.820312 4.453125 -0.59375 C 4.242188 -0.363281 3.992188 -0.1875 3.703125 -0.0625 C 3.421875 0.0507812 3.113281 0.109375 2.78125 0.109375 Z M 2.78125 0.109375 "/></g></g><g transform="translate(253.82183, 221.257287)"><g><path d="M 2.5625 0.109375 C 2.226562 0.109375 1.941406 0.046875 1.703125 -0.078125 C 1.460938 -0.203125 1.273438 -0.378906 1.140625 -0.609375 C 1.015625 -0.835938 0.953125 -1.109375 0.953125 -1.421875 L 0.953125 -4.078125 L 0.125 -4.078125 L 0.125 -5.125 L 0.96875 -5.125 L 0.96875 -6.40625 L 2.203125 -7.296875 L 2.203125 -5.125 L 3.484375 -5.125 L 3.484375 -4.078125 L 2.203125 -4.078125 L 2.203125 -1.640625 C 2.203125 -1.390625 2.253906 -1.21875 2.359375 -1.125 C 2.472656 -1.039062 2.613281 -1 2.78125 -1 C 2.90625 -1 3.03125 -1.019531 3.15625 -1.0625 C 3.289062 -1.101562 3.398438 -1.144531 3.484375 -1.1875 L 3.484375 -0.046875 C 3.390625 -0.015625 3.253906 0.015625 3.078125 0.046875 C 2.910156 0.0859375 2.738281 0.109375 2.5625 0.109375 Z M 2.5625 0.109375 "/></g></g></g></svg>